<svg width="486" height="311" viewBox="0 0 486 311" fill="none" xmlns="http://www.w3.org/2000/svg">
<g clip-path="url(#clip0_2_578)">
<path d="M469.238 61.0148H110.094C102.085 61.0148 95.5936 67.5067 95.5936 75.5148V235C95.5936 243.008 102.085 249.5 110.094 249.5H469.238C477.246 249.5 483.738 243.008 483.738 235V75.5148C483.738 67.5067 477.246 61.0148 469.238 61.0148Z" fill="#FAFAFA" stroke="#FAC05E" stroke-width="3"/>
<path d="M293.694 149.107V137.871C293.694 136.934 293.694 135.478 293.799 133.501H293.59C293.278 135.166 293.07 136.31 292.862 136.83L289.845 149.107H284.019L280.897 137.038C280.793 136.622 280.585 135.478 280.273 133.605C280.377 136.622 280.481 138.599 280.481 139.535V149.107H275.071V128.715H284.227L287.036 139.847C287.244 140.576 287.348 141.616 287.556 142.865H287.66C287.764 142.032 287.972 141.096 288.18 139.847L290.781 128.819H299.833V149.211H293.694V149.107Z" fill="#09817E"/>
<path d="M303.786 149.107V128.715H316.479V133.501H309.925V136.518H316.063V141.304H309.925V144.321H317V149.107H303.786Z" fill="#09817E"/>
<path d="M319.809 149.107V128.715H325.947V144.321H333.022V149.107H319.809Z" fill="#09817E"/>
<path d="M348.837 149.107V141.512H341.762V149.107H335.624V128.715H341.762V136.31H348.837V128.715H354.976V149.107H348.837Z" fill="#09817E"/>
<path d="M368.085 149.419C365.172 149.419 362.779 148.483 360.802 146.61C358.825 144.737 357.889 142.24 357.889 139.223C357.889 136.102 358.825 133.501 360.802 131.42C362.779 129.443 365.276 128.403 368.397 128.403C371.415 128.403 373.807 129.339 375.68 131.316C377.553 133.189 378.489 135.79 378.489 138.911C378.489 142.032 377.553 144.633 375.576 146.61C373.599 148.587 370.998 149.419 368.085 149.419ZM368.293 133.605C367.045 133.605 366.108 134.021 365.38 134.957C364.652 135.894 364.34 137.246 364.34 138.911C364.34 140.576 364.652 141.928 365.38 142.865C366.108 143.801 366.941 144.217 368.085 144.217C369.126 144.217 370.062 143.801 370.79 142.865C371.519 141.928 371.831 140.68 371.831 139.015C371.831 137.35 371.519 135.998 370.894 135.061C370.27 134.021 369.438 133.605 368.293 133.605Z" fill="#09817E"/>
<path d="M391.911 149.107L390.351 144.737C389.726 142.865 388.79 141.928 387.646 141.928H387.437V149.107H381.299V128.715H389.414C395.033 128.715 397.738 130.588 397.738 134.333C397.738 137.246 396.177 139.015 393.056 139.951C394.72 140.472 395.865 141.72 396.801 143.905L398.778 149.107H391.911ZM387.437 132.877V137.558H388.582C389.414 137.558 390.143 137.35 390.559 136.83C391.079 136.31 391.287 135.79 391.287 135.061C391.287 133.605 390.455 132.877 388.686 132.877H387.437Z" fill="#09817E"/>
<path d="M288.436 185.26H281.598L275.071 164.952H281.702L284.81 177.489C285.017 178.525 285.224 179.25 285.224 179.768H285.328C285.432 179.147 285.535 178.318 285.743 177.385L288.747 164.952H295.171L288.436 185.26Z" fill="#09817E"/>
<path d="M297.242 185.26V164.952H309.883V169.718H303.355V172.723H309.468V177.489H303.355V180.494H310.401V185.26H297.242Z" fill="#09817E"/>
<path d="M313.303 185.26V164.952H319.416V180.494H326.461V185.26H313.303Z" fill="#09817E"/>
<path d="M337.236 185.571C334.335 185.571 331.952 184.638 329.983 182.774C328.015 180.909 327.082 178.422 327.082 175.417C327.082 172.309 328.015 169.719 329.983 167.647C331.952 165.678 334.439 164.642 337.547 164.642C340.551 164.642 342.934 165.574 344.799 167.543C346.664 169.408 347.597 171.998 347.597 175.106C347.597 178.215 346.664 180.805 344.696 182.774C342.727 184.742 340.241 185.571 337.236 185.571ZM337.443 169.822C336.2 169.822 335.267 170.237 334.542 171.169C333.817 172.102 333.506 173.449 333.506 175.106C333.506 176.764 333.817 178.111 334.542 179.044C335.267 179.976 336.096 180.391 337.236 180.391C338.272 180.391 339.205 179.976 339.93 179.044C340.655 178.111 340.966 176.868 340.966 175.21C340.966 173.552 340.655 172.205 340.033 171.273C339.412 170.237 338.583 169.822 337.443 169.822Z" fill="#09817E"/>
<path d="M365.522 184.638C363.864 185.26 361.895 185.571 359.72 185.571C356.404 185.571 353.918 184.638 352.053 182.774C350.188 180.909 349.255 178.526 349.255 175.521C349.255 172.309 350.291 169.615 352.363 167.647C354.436 165.678 357.129 164.642 360.445 164.642C362.206 164.642 363.864 164.849 365.522 165.264V170.962C364.278 170.237 362.828 169.926 361.067 169.926C359.409 169.926 358.165 170.444 357.129 171.377C356.197 172.309 355.679 173.656 355.679 175.314C355.679 176.971 356.197 178.215 357.129 179.147C358.062 180.08 359.409 180.598 360.963 180.598C362.413 180.598 363.968 180.183 365.418 179.458V184.638H365.522Z" fill="#09817E"/>
<path d="M368.734 185.26V164.952H374.847V185.26H368.734Z" fill="#09817E"/>
<path d="M378.887 185.26V164.952H387.28C394.429 164.952 398.055 168.268 398.055 174.899C398.055 178.007 397.123 180.597 395.154 182.462C393.185 184.327 390.699 185.26 387.487 185.26H378.887ZM385 169.718V180.39H386.762C388.212 180.39 389.352 179.872 390.284 178.836C391.217 177.8 391.631 176.453 391.631 174.795C391.631 173.345 391.217 172.101 390.284 171.065C389.352 170.029 388.212 169.615 386.658 169.615H385V169.718Z" fill="#09817E"/>
<path d="M412.974 185.26L412.041 181.53H405.928L404.996 185.26H398.365L405.41 164.952H412.974L419.605 185.26H412.974ZM409.554 171.583C409.347 170.858 409.244 170.029 409.14 169.304H409.036C409.036 169.718 408.829 170.444 408.622 171.48L407.172 177.075H411.005L409.554 171.583Z" fill="#09817E"/>
<path d="M421.988 185.26V164.952H430.38C437.529 164.952 441.156 168.268 441.156 174.899C441.156 178.007 440.223 180.597 438.255 182.462C436.286 184.327 433.799 185.26 430.588 185.26H421.988ZM428.101 169.718V180.39H429.862C431.313 180.39 432.453 179.872 433.385 178.836C434.317 177.8 434.732 176.453 434.732 174.795C434.732 173.345 434.317 172.101 433.385 171.065C432.453 170.029 431.313 169.615 429.759 169.615H428.101V169.718Z" fill="#09817E"/>
<path d="M444.057 185.26V164.952H456.697V169.718H450.17V172.723H456.283V177.489H450.17V180.494H457.215V185.26H444.057Z" fill="#09817E"/>
<path d="M292.795 109.03L292.192 102.059C292.101 100.97 292.01 99.7878 292.01 98.5431H291.95C291.527 99.7567 290.954 101.033 290.41 102.122L286.968 109.061H285.186L281.714 102.122C281.17 101.033 280.627 99.7878 280.174 98.5742H280.114C280.114 99.8189 280.023 100.97 279.932 102.059L279.359 109.03H275.071L276.641 90.11H280.265L284.28 98.0763C284.824 99.1655 285.639 100.877 286.122 102.122H286.183C286.636 100.877 287.3 99.3833 287.934 98.0763L291.92 90.11H295.573L297.204 109.03H292.795Z" fill="#00ACA4"/>
<path d="M310.943 101.841L309.252 103.553H302.73C303.032 104.735 304.27 106.105 306.565 106.105C308.074 106.105 309.222 105.762 310.339 105.078L309.977 108.656C309.071 109.092 307.803 109.434 306.082 109.434C301.824 109.434 298.442 106.603 298.442 102.215C298.442 97.8583 301.583 95.151 305.236 95.151C308.859 95.151 311.094 97.7338 311.094 100.503C311.064 100.97 311.034 101.468 310.943 101.841ZM305.236 98.4807C303.968 98.4807 302.881 99.4142 302.579 100.783H307.199C307.229 100.69 307.229 100.597 307.229 100.472C307.229 99.4142 306.444 98.4807 305.236 98.4807Z" fill="#00ACA4"/>
<path d="M316.83 109.621C315.079 109.497 312.905 107.878 312.905 104.767V87.9006H317.102V104.424C317.102 105.7 317.857 106.385 318.702 106.603L316.83 109.621Z" fill="#00ACA4"/>
<path d="M328.426 109.03V101.001C328.426 100.037 327.762 99.1342 326.433 99.1342C325.135 99.1342 324.289 100.006 324.289 101.064V109.03H320.123V87.9006H324.289C324.289 87.9006 324.289 96.5203 324.289 96.4892C325.135 95.6801 326.222 95.2445 327.792 95.2445C330.63 95.2445 332.623 97.1116 332.623 100.068V109.03H328.426Z" fill="#00ACA4"/>
<path d="M357.693 99.1346C355.458 99.1346 353.375 100.504 353.375 103.74V109.061H349.178V95.6182H353.073L353.194 97.7343C354.009 96.0539 355.609 95.4004 357.753 95.4004L358.055 99.1657C357.995 99.1346 357.904 99.1346 357.693 99.1346Z" fill="#00ACA4"/>
<path d="M340.924 109.59C336.984 109.59 333.821 106.656 333.821 102.477C333.821 98.2694 336.984 95.3354 340.924 95.3354C344.835 95.3354 347.999 98.2694 347.999 102.477C347.999 106.656 344.835 109.59 340.924 109.59ZM340.924 99.0104C339.285 99.0104 337.905 100.462 337.905 102.477C337.905 104.463 339.285 105.885 340.924 105.885C342.535 105.885 343.944 104.463 343.944 102.477C343.944 100.462 342.535 99.0104 340.924 99.0104Z" fill="#00ACA4"/>
<path d="M365.358 100.557H361.966V109.434H359.989V90.0371H365.241C368.102 90.0371 370.758 91.982 370.758 95.2962C370.758 98.6098 368.102 100.557 365.358 100.557ZM364.916 91.8002H361.966V98.7922H365.034C367.011 98.7922 368.751 97.5154 368.751 95.2962C368.751 93.1073 367.011 91.8002 364.916 91.8002Z" fill="#09817E"/>
<path d="M372.999 106.424V87.7869H374.858V106.21C374.858 107.519 375.653 108.369 376.569 108.582L375.3 109.889C374.268 109.554 372.999 108.644 372.999 106.424Z" fill="#09817E"/>
<path d="M386.54 107.639C385.832 108.948 384.298 109.738 382.646 109.738C380.138 109.738 378.368 107.944 378.368 105.694C378.368 102.958 380.463 101.681 382.646 101.438L386.215 101.073V99.7655C386.215 98.0619 385.065 97.0293 383.06 97.0293C381.79 97.0293 380.433 97.4551 379.519 98.0619L379.135 96.451C380.167 95.7222 381.643 95.3568 383.148 95.3568C386.009 95.3568 388.103 96.9991 388.103 99.9479V106.241C388.103 107.61 388.9 108.339 389.756 108.49L388.546 109.738C387.631 109.526 386.746 108.702 386.54 107.639ZM382.941 102.988C381.2 103.139 380.167 104.204 380.167 105.694C380.167 107.061 381.288 108.096 382.704 108.096C384.298 108.096 386.215 106.697 386.215 104.539V102.684L382.941 102.988Z" fill="#09817E"/>
<path d="M400.789 100.343C400.789 98.398 399.492 97.0293 397.101 97.0293C394.771 97.0293 393.295 98.398 393.295 100.343V109.434H391.438V95.6601H393.118L393.178 97.3331C393.886 96.2683 395.184 95.3568 397.544 95.3568C400.464 95.3568 402.647 97.1504 402.647 100.161V109.434H400.789V100.343Z" fill="#09817E"/>
<path d="M411.793 109.738C407.811 109.738 404.742 106.757 404.742 102.563C404.742 98.337 407.811 95.3568 411.793 95.3568C415.805 95.3568 418.814 98.337 418.814 102.563C418.814 106.757 415.805 109.738 411.793 109.738ZM411.793 97.0595C408.873 97.0595 406.63 99.3402 406.63 102.563C406.63 105.816 408.873 108.034 411.793 108.034C414.625 108.034 416.926 105.816 416.926 102.563C416.926 99.3402 414.625 97.0595 411.793 97.0595Z" fill="#09817E"/>
<path d="M275.07 222.622V201.789H281.342V222.622H275.07Z" fill="#00ACA4"/>
<path d="M299.942 222.622L292.608 212.524C292.077 211.78 291.546 211.036 291.227 210.399H291.12C291.227 211.461 291.227 212.524 291.227 213.906V222.622H285.381V201.789H291.333L298.348 211.355C299.092 212.312 299.517 212.95 299.624 213.375H299.73C299.624 213.056 299.624 212.312 299.624 211.143V201.789H305.47V222.622H299.942Z" fill="#00ACA4"/>
<path d="M320.138 206.678V222.622H313.867V206.678H308.021V201.789H326.09V206.678H320.138Z" fill="#00ACA4"/>
<path d="M328.535 222.622V201.789H341.502V206.678H334.806V209.761H341.077V214.65H334.806V217.733H342.034V222.622H328.535Z" fill="#00ACA4"/>
<path d="M355.746 222.622L354.151 218.158C353.513 216.245 352.557 215.288 351.388 215.288H351.175V222.622H344.904V201.789H353.195C358.934 201.789 361.698 203.702 361.698 207.529C361.698 210.505 360.103 212.312 356.915 213.268V213.375C358.615 213.906 359.785 215.182 360.741 217.414L362.761 222.728H355.746V222.622ZM351.175 206.041V210.824H352.344C353.195 210.824 353.939 210.611 354.364 210.08C354.895 209.548 355.108 209.017 355.108 208.273C355.108 206.785 354.258 206.041 352.451 206.041H351.175Z" fill="#00ACA4"/>
<path d="M379.766 222.622L372.432 212.524C371.901 211.78 371.369 211.036 371.051 210.399H370.944C371.051 211.461 371.051 212.524 371.051 213.906V222.622H365.205V201.789H371.157L378.172 211.355C378.916 212.312 379.341 212.95 379.448 213.375H379.554C379.447 213.056 379.448 212.312 379.448 211.143V201.789H385.293V222.622H379.766Z" fill="#00ACA4"/>
<path d="M389.439 222.622V201.789H402.406V206.678H395.71V209.761H401.981V214.65H395.71V217.733H402.938V222.622H389.439Z" fill="#00ACA4"/>
<path d="M416.649 206.678V222.622H410.378V206.678H404.532V201.789H422.602V206.678H416.649Z" fill="#00ACA4"/>
<path d="M237.048 64.2192H229.281C226.6 56.0429 222.661 48.3348 217.605 41.373C216.773 40.3707 215.861 39.2683 214.873 37.9704C213.05 35.5545 211.084 33.2502 208.985 31.0699C208.81 30.8845 208.634 30.6991 208.454 30.5187C208.018 30.0777 207.582 29.6417 207.136 29.2158L206.134 28.2536C205.573 27.7525 205.011 27.2113 204.44 26.7051C204.35 26.625 204.26 26.5398 204.169 26.4646C202.596 25.0715 200.972 23.7736 199.349 22.5258C198.848 16.9032 200.957 11.8368 203.358 8.02829C203.802 7.30834 204.035 6.47791 204.03 5.63189C204.025 4.78586 203.782 3.95835 203.328 3.24389C202.875 2.52943 202.23 1.95683 201.467 1.5915C200.704 1.22618 199.854 1.08287 199.013 1.17794C189.316 2.36059 183.067 6.28438 179.083 10.3886C173.698 7.87831 168.137 5.76137 162.446 4.05438C152.627 1.36857 142.493 0.00517599 132.313 0.000299898C90.1089 -0.0949134 53.9078 22.4907 38.7388 54.6227C30.7209 53.435 25.0782 50.4684 21.2997 46.9154C25.5375 45.2341 29.2438 42.4419 32.0288 38.8323C36.9749 32.1674 34.1636 21.2229 25.6746 18.7122C17.1855 16.2016 4.52717 24.1895 8.81177 41.1876C9.25963 42.9217 9.89478 44.602 10.706 46.1988C7.33608 47.0754 3.91526 47.7431 0.463065 48.1983C0.334736 48.216 0.217141 48.2795 0.132018 48.3771C0.0468956 48.4748 0 48.5999 0 48.7295C0 48.859 0.0468956 48.9842 0.132018 49.0818C0.217141 49.1795 0.334736 49.243 0.463065 49.2607C4.45481 49.7864 8.49827 49.7864 12.49 49.2607C18.8342 58.782 30.2949 64.5299 34.2939 66.2988C30.4707 79.3211 30.1132 93.1157 33.2565 106.319C35.5667 121.437 42.9082 135.664 54.4641 147.411C55.2358 148.318 56.0125 149.215 56.8243 150.092C59.3065 152.764 61.9868 155.245 64.8423 157.513C64.687 167.536 52.3142 189.906 48.5258 198.986C48.2721 199.654 48.1569 200.367 48.187 201.081C48.2172 201.795 48.3921 202.496 48.7011 203.14C48.9615 203.742 49.3719 204.267 49.8931 204.664C50.4143 205.062 51.0288 205.319 51.6778 205.411L52.209 205.436C66.9821 205.471 91.5521 186.393 102.822 174.757C112.936 176.986 123.291 177.927 133.641 177.558C159.995 176.27 177.785 170.773 194.212 158.3C201.881 153.011 208.669 146.548 214.327 139.147C215.585 137.724 216.833 136.266 218.126 134.747C223.173 127.651 227.063 119.799 229.652 111.485H236.988C239.78 111.483 242.459 110.378 244.441 108.411C246.423 106.444 247.548 103.774 247.572 100.982L247.632 74.838C247.635 73.4455 247.364 72.0661 246.834 70.7785C246.303 69.491 245.524 68.3207 244.541 67.3344C243.558 66.3482 242.391 65.5654 241.105 65.0309C239.819 64.4963 238.441 64.2205 237.048 64.2192ZM14.9756 31.571C15.8826 26.219 20.8287 22.7813 24.3766 24.2947C28.2453 25.9434 30.8161 33.8862 22.9234 40.3006C21.4608 41.4764 19.8825 42.5006 18.2128 43.3574C15.3013 39.143 14.4494 34.678 14.9756 31.571Z" fill="#09817E"/>
<path d="M137.137 190.262L141.863 199.867L152.432 201.408L144.784 208.885L146.59 219.443L137.137 214.458L127.684 219.443L129.489 208.885L121.841 201.408L132.41 199.867L137.137 190.262Z" fill="#FAC05E"/>
<path d="M234.518 141.237L238.677 149.69L247.978 151.046L241.248 157.626L242.837 166.917L234.518 162.53L226.2 166.917L227.788 157.626L221.058 151.046L230.359 149.69L234.518 141.237Z" fill="#FAC05E"/>
<path d="M195.962 175.087L201.913 187.182L215.221 189.122L205.591 198.537L207.865 211.831L195.962 205.554L184.059 211.831L186.332 198.537L176.702 189.122L190.01 187.182L195.962 175.087Z" fill="#FAC05E"/>
<path d="M85.471 54.0771V61.6917H79.9799V39.2486H89.0692C90.8109 39.2486 92.3492 39.5671 93.6842 40.2042C95.0296 40.8311 96.0673 41.7303 96.7974 42.9017C97.5379 44.0629 97.9081 45.3834 97.9081 46.8632C97.9081 49.052 97.1103 50.8041 95.5145 52.1195C93.9293 53.4245 91.7495 54.0771 88.9753 54.0771H85.471ZM85.471 49.8998H89.0692C90.133 49.8998 90.9412 49.6378 91.494 49.1137C92.0572 48.5896 92.3388 47.8497 92.3388 46.894C92.3388 45.8459 92.052 45.0083 91.4784 44.3815C90.9047 43.7547 90.1225 43.4361 89.1317 43.4258H85.471V49.8998Z" fill="#FAFAFA"/>
<path d="M110.846 49.7148L109.109 49.5915C107.451 49.5915 106.387 50.1053 105.918 51.1329V61.6917H100.646V45.0135H105.589L105.761 47.1561C106.648 45.5222 107.884 44.7052 109.469 44.7052C110.032 44.7052 110.523 44.7669 110.94 44.8902L110.846 49.7148Z" fill="#FAFAFA"/>
<path d="M120.623 62C118.027 62 115.925 61.2396 114.319 59.7187C112.713 58.1875 111.91 56.1991 111.91 53.7534V53.3218C111.91 51.6159 112.228 50.1105 112.864 48.8054C113.511 47.5003 114.449 46.4933 115.68 45.7842C116.911 45.0649 118.371 44.7052 120.06 44.7052C122.438 44.7052 124.315 45.4348 125.692 46.894C127.069 48.343 127.757 50.3674 127.757 52.9672V54.9865H117.276C117.463 55.9216 117.875 56.6564 118.511 57.1908C119.148 57.7251 119.972 57.9923 120.983 57.9923C122.652 57.9923 123.956 57.4168 124.894 56.2659L127.304 59.0713C126.646 59.9653 125.713 60.6795 124.503 61.2139C123.304 61.738 122.011 62 120.623 62ZM120.029 48.7129C118.485 48.7129 117.568 49.72 117.276 51.7341H122.595V51.3333C122.615 50.501 122.402 49.8587 121.953 49.4066C121.505 48.9441 120.863 48.7129 120.029 48.7129ZM125.942 42.3314V42.5318H121.781L119.294 40.4355L116.806 42.5318H112.739V42.2697L117.792 38H120.811L125.942 42.3314Z" fill="#FAFAFA"/>
<path d="M134.875 45.0135L135.047 46.9711C136.247 45.4605 137.858 44.7052 139.881 44.7052C142.019 44.7052 143.464 45.5427 144.215 47.2177C145.362 45.5427 147.02 44.7052 149.19 44.7052C152.621 44.7052 154.384 46.7502 154.477 50.8401V61.6917H149.19V51.1638C149.19 50.3109 149.044 49.6891 148.752 49.2987C148.46 48.9082 147.928 48.7129 147.156 48.7129C146.113 48.7129 145.336 49.1702 144.825 50.0848L144.841 50.3006V61.6917H139.553V51.1946C139.553 50.3211 139.412 49.6891 139.13 49.2987C138.849 48.9082 138.312 48.7129 137.519 48.7129C136.507 48.7129 135.736 49.1702 135.204 50.0848V61.6917H129.932V45.0135H134.875Z" fill="#FAFAFA"/>
<path d="M163.05 61.6917H157.763V45.0135H163.05V61.6917ZM157.45 40.7129C157.45 39.973 157.721 39.3667 158.263 38.894C158.806 38.4213 159.51 38.185 160.375 38.185C161.241 38.185 161.945 38.4213 162.487 38.894C163.03 39.3667 163.301 39.973 163.301 40.7129C163.301 41.4528 163.03 42.0591 162.487 42.5318C161.945 43.0045 161.241 43.2408 160.375 43.2408C159.51 43.2408 158.806 43.0045 158.263 42.5318C157.721 42.0591 157.45 41.4528 157.45 40.7129Z" fill="#FAFAFA"/>
<path d="M165.647 53.1985C165.647 51.5337 165.976 50.0539 166.633 48.7592C167.29 47.4541 168.234 46.4522 169.465 45.7534C170.695 45.0546 172.14 44.7052 173.798 44.7052C176.332 44.7052 178.33 45.4811 179.79 47.0328C181.25 48.5742 181.98 50.6757 181.98 53.3372V53.5222C181.98 56.122 181.245 58.1875 179.774 59.7187C178.314 61.2396 176.332 62 173.829 62C171.42 62 169.485 61.2909 168.025 59.8728C166.565 58.4444 165.778 56.5125 165.663 54.0771L165.647 53.1985ZM170.919 53.5222C170.919 55.0636 171.165 56.194 171.655 56.9133C172.145 57.6326 172.87 57.9923 173.829 57.9923C175.707 57.9923 176.666 56.569 176.708 53.7225V53.1985C176.708 50.2081 175.738 48.7129 173.798 48.7129C172.035 48.7129 171.081 50.0026 170.935 52.5819L170.919 53.5222Z" fill="#FAFAFA"/>
<path d="M198.543 54.5878H187.979V49.9999H198.543V54.5878Z" fill="#FAFAFA"/>
<path d="M72.5433 54.5878H61.9788V49.9999H72.5433V54.5878Z" fill="#FAFAFA"/>
<path d="M87.3484 121.361H53.5103V113.058L64.896 101.529C68.149 98.1224 70.2752 95.8017 71.2745 94.5669C72.2738 93.3107 72.9648 92.2355 73.3475 91.3413C73.7515 90.4471 73.9535 89.5103 73.9535 88.5309C73.9535 87.3174 73.5601 86.3593 72.7735 85.6567C71.9868 84.9541 70.8812 84.6028 69.4566 84.6028C67.9896 84.6028 66.5012 85.0286 64.9916 85.8802C63.5033 86.7106 61.813 87.9454 59.9207 89.5848L53 81.4731C55.4026 79.3227 57.4225 77.7898 59.0596 76.8743C60.6968 75.9375 62.4721 75.2242 64.3857 74.7345C66.3205 74.2448 68.4892 74 70.8918 74C73.911 74 76.6006 74.5323 78.9606 75.5968C81.342 76.6613 83.1811 78.1836 84.4781 80.1637C85.7963 82.1224 86.4554 84.326 86.4554 86.7745C86.4554 88.6055 86.2215 90.2981 85.7538 91.8523C85.3073 93.4065 84.6056 94.9395 83.6489 96.4511C82.6921 97.9415 81.4164 99.517 79.8217 101.178C78.2484 102.838 74.8784 105.989 69.7118 110.631V110.95H87.3484V121.361Z" fill="#FAFAFA"/>
<path d="M128.424 98.0798C128.424 106.341 127.042 112.398 124.278 116.251C121.514 120.084 117.282 122 111.584 122C106.014 122 101.815 119.999 98.9867 115.996C96.1589 111.972 94.745 106 94.745 98.0798C94.745 89.7764 96.127 83.6873 98.891 79.8124C101.655 75.9375 105.886 74 111.584 74C117.134 74 121.322 76.0226 124.15 80.0679C126.999 84.0918 128.424 90.0958 128.424 98.0798ZM107.279 98.0798C107.279 103.36 107.608 106.99 108.267 108.97C108.927 110.95 110.032 111.94 111.584 111.94C113.158 111.94 114.263 110.918 114.901 108.874C115.56 106.83 115.89 103.232 115.89 98.0798C115.89 92.9062 115.56 89.2868 114.901 87.2216C114.242 85.1351 113.136 84.0918 111.584 84.0918C110.032 84.0918 108.927 85.0925 108.267 87.0938C107.608 89.0951 107.279 92.7572 107.279 98.0798Z" fill="#FAFAFA"/>
<path d="M169.116 121.361H135.278V113.058L146.664 101.529C149.917 98.1224 152.043 95.8017 153.042 94.5669C154.042 93.3107 154.733 92.2355 155.115 91.3413C155.519 90.4471 155.721 89.5103 155.721 88.5309C155.721 87.3174 155.328 86.3593 154.541 85.6567C153.754 84.9541 152.649 84.6028 151.224 84.6028C149.757 84.6028 148.269 85.0286 146.759 85.8802C145.271 86.7106 143.581 87.9454 141.688 89.5848L134.768 81.4731C137.17 79.3227 139.19 77.7898 140.827 76.8743C142.464 75.9375 144.24 75.2242 146.153 74.7345C148.088 74.2448 150.257 74 152.66 74C155.679 74 158.368 74.5323 160.728 75.5968C163.11 76.6613 164.949 78.1836 166.246 80.1637C167.564 82.1224 168.223 84.326 168.223 86.7745C168.223 88.6055 167.989 90.2981 167.522 91.8523C167.075 93.4065 166.373 94.9395 165.417 96.4511C164.46 97.9415 163.184 99.517 161.589 101.178C160.016 102.838 156.646 105.989 151.479 110.631V110.95H169.116V121.361Z" fill="#FAFAFA"/>
<path d="M210 121.361H176.162V113.058L187.548 101.529C190.801 98.1224 192.927 95.8017 193.926 94.5669C194.925 93.3107 195.616 92.2355 195.999 91.3413C196.403 90.4471 196.605 89.5103 196.605 88.5309C196.605 87.3174 196.212 86.3593 195.425 85.6567C194.638 84.9541 193.533 84.6028 192.108 84.6028C190.641 84.6028 189.153 85.0286 187.643 85.8802C186.155 86.7106 184.465 87.9454 182.572 89.5848L175.652 81.4731C178.054 79.3227 180.074 77.7898 181.711 76.8743C183.348 75.9375 185.124 75.2242 187.037 74.7345C188.972 74.2448 191.141 74 193.543 74C196.563 74 199.252 74.5323 201.612 75.5968C203.994 76.6613 205.833 78.1836 207.13 80.1637C208.448 82.1224 209.107 84.326 209.107 86.7745C209.107 88.6055 208.873 90.2981 208.405 91.8523C207.959 93.4065 207.257 94.9395 206.3 96.4511C205.344 97.9415 204.068 99.517 202.473 101.178C200.9 102.838 197.53 105.989 192.363 110.631V110.95H210V121.361Z" fill="#FAFAFA"/>
<path d="M461 263H118C104.745 263 94 273.745 94 287C94 300.255 104.745 311 118 311H461C474.255 311 485 300.255 485 287C485 273.745 474.255 263 461 263Z" fill="#00ACA4"/>
<path d="M213.336 297.707L208.954 282.294H208.822C209.027 284.919 209.13 286.959 209.13 288.413V297.707H204V276.307H211.709L216.179 291.501H216.296L220.678 276.307H228.402V297.707H223.082V288.325C223.082 287.837 223.087 287.295 223.096 286.7C223.116 286.105 223.184 284.646 223.302 282.323H223.17L218.846 297.707H213.336Z" fill="#FAFAFA"/>
<path d="M251.236 276.307V289.188C251.236 291.989 250.439 294.16 248.847 295.702C247.264 297.234 244.978 298 241.988 298C239.066 298 236.819 297.253 235.246 295.76C233.683 294.267 232.901 292.121 232.901 289.32V276.307H238.719V288.866C238.719 290.379 239.003 291.477 239.57 292.16C240.136 292.843 240.972 293.184 242.076 293.184C243.258 293.184 244.113 292.848 244.64 292.174C245.178 291.491 245.446 290.379 245.446 288.837V276.307H251.236Z" fill="#FAFAFA"/>
<path d="M276.136 297.707H268.544L260.718 282.631H260.586C260.772 285.002 260.864 286.812 260.864 288.061V297.707H255.735V276.307H263.297L271.094 291.179H271.182C271.045 289.022 270.977 287.29 270.977 285.983V276.307H276.136V297.707Z" fill="#FAFAFA"/>
<path d="M280.767 297.707V276.307H286.585V297.707H280.767Z" fill="#FAFAFA"/>
<path d="M300.772 280.743C299.394 280.743 298.32 281.308 297.548 282.44C296.776 283.563 296.39 285.114 296.39 287.095C296.39 291.213 297.958 293.272 301.094 293.272C302.042 293.272 302.961 293.14 303.85 292.877C304.739 292.613 305.633 292.296 306.532 291.925V296.814C304.744 297.605 302.721 298 300.464 298C297.23 298 294.748 297.063 293.019 295.19C291.299 293.316 290.44 290.608 290.44 287.066C290.44 284.851 290.855 282.904 291.685 281.226C292.526 279.547 293.727 278.259 295.291 277.361C296.864 276.454 298.71 276 300.831 276C303.146 276 305.359 276.503 307.47 277.508L305.696 282.06C304.905 281.689 304.113 281.377 303.322 281.123C302.531 280.869 301.681 280.743 300.772 280.743Z" fill="#FAFAFA"/>
<path d="M310.723 297.707V276.307H316.542V297.707H310.723Z" fill="#FAFAFA"/>
<path d="M336.737 283.114C336.737 285.505 336.029 287.354 334.612 288.661C333.205 289.959 331.202 290.608 328.603 290.608H326.976V297.707H321.187V276.307H328.603C331.31 276.307 333.342 276.898 334.7 278.079C336.058 279.259 336.737 280.938 336.737 283.114ZM326.976 285.895H328.032C328.901 285.895 329.59 285.651 330.098 285.163C330.616 284.675 330.875 284.002 330.875 283.143C330.875 281.699 330.074 280.977 328.471 280.977H326.976V285.895Z" fill="#FAFAFA"/>
<path d="M353.298 297.707L352.243 293.697H345.282L344.197 297.707H337.836L344.827 276.22H352.551L359.63 297.707H353.298ZM351.041 288.954L350.118 285.441C349.903 284.66 349.639 283.65 349.327 282.411C349.024 281.172 348.823 280.284 348.726 279.747C348.638 280.245 348.462 281.065 348.198 282.206C347.944 283.348 347.372 285.597 346.483 288.954H351.041Z" fill="#FAFAFA"/>
<path d="M361.96 297.707V276.307H367.749V293.038H376V297.707H361.96Z" fill="#FAFAFA"/>
</g>
<defs>
<clipPath id="clip0_2_578">
<rect width="486" height="311" fill="white"/>
</clipPath>
</defs>
</svg>
