<svg width="482" height="311" viewBox="0 0 482 311" fill="none" xmlns="http://www.w3.org/2000/svg">
<g clip-path="url(#clip0_2_702)">
<path d="M465.496 61.0148H111.023C103.015 61.0148 96.5231 67.5067 96.5231 75.5148V235C96.5231 243.008 103.015 249.5 111.023 249.5H465.496C473.504 249.5 479.996 243.008 479.996 235V75.5148C479.996 67.5067 473.504 61.0148 465.496 61.0148Z" fill="#FAFAFA" stroke="#FAC05E" stroke-width="3"/>
<path d="M293.725 109.03L293.121 102.059C293.03 100.97 292.939 99.7878 292.939 98.5431H292.879C292.456 99.7567 291.883 101.033 291.339 102.122L287.897 109.061H286.115L282.643 102.122C282.099 101.033 281.556 99.7878 281.103 98.5742H281.043C281.043 99.8189 280.952 100.97 280.861 102.059L280.288 109.03H276L277.57 90.11H281.194L285.21 98.0763C285.753 99.1655 286.568 100.877 287.051 102.122H287.112C287.565 100.877 288.229 99.3833 288.863 98.0763L292.849 90.11H296.502L298.133 109.03H293.725Z" fill="#00ACA4"/>
<path d="M311.872 101.841L310.181 103.553H303.659C303.961 104.735 305.199 106.105 307.494 106.105C309.004 106.105 310.151 105.762 311.268 105.078L310.906 108.656C310 109.092 308.732 109.434 307.011 109.434C302.753 109.434 299.371 106.603 299.371 102.215C299.371 97.8583 302.512 95.151 306.165 95.151C309.789 95.151 312.023 97.7338 312.023 100.503C311.993 100.97 311.963 101.468 311.872 101.841ZM306.165 98.4807C304.897 98.4807 303.81 99.4142 303.508 100.783H308.128C308.158 100.69 308.158 100.597 308.158 100.472C308.158 99.4142 307.373 98.4807 306.165 98.4807Z" fill="#00ACA4"/>
<path d="M317.759 109.621C316.008 109.497 313.834 107.878 313.834 104.767V87.9006H318.031V104.424C318.031 105.7 318.786 106.385 319.631 106.603L317.759 109.621Z" fill="#00ACA4"/>
<path d="M329.355 109.03V101.001C329.355 100.037 328.691 99.1342 327.362 99.1342C326.064 99.1342 325.219 100.006 325.219 101.064V109.03H321.052V87.9006H325.219C325.219 87.9006 325.219 96.5203 325.219 96.4892C326.064 95.6801 327.151 95.2445 328.721 95.2445C331.559 95.2445 333.552 97.1116 333.552 100.068V109.03H329.355Z" fill="#00ACA4"/>
<path d="M358.622 99.1346C356.387 99.1346 354.304 100.504 354.304 103.74V109.061H350.107V95.6182H354.002L354.123 97.7343C354.938 96.0539 356.538 95.4004 358.682 95.4004L358.984 99.1657C358.924 99.1346 358.833 99.1346 358.622 99.1346Z" fill="#00ACA4"/>
<path d="M341.853 109.59C337.913 109.59 334.75 106.656 334.75 102.477C334.75 98.2694 337.913 95.3354 341.853 95.3354C345.765 95.3354 348.928 98.2694 348.928 102.477C348.928 106.656 345.765 109.59 341.853 109.59ZM341.853 99.0104C340.214 99.0104 338.834 100.462 338.834 102.477C338.834 104.463 340.214 105.885 341.853 105.885C343.464 105.885 344.874 104.463 344.874 102.477C344.874 100.462 343.464 99.0104 341.853 99.0104Z" fill="#00ACA4"/>
<path d="M366.287 100.557H362.895V109.434H360.918V90.0371H366.17C369.031 90.0371 371.687 91.982 371.687 95.2962C371.687 98.6098 369.031 100.557 366.287 100.557ZM365.845 91.8002H362.895V98.7922H365.963C367.94 98.7922 369.68 97.5154 369.68 95.2962C369.68 93.1073 367.94 91.8002 365.845 91.8002Z" fill="#09817E"/>
<path d="M373.928 106.424V87.7869H375.787V106.21C375.787 107.519 376.582 108.369 377.498 108.582L376.229 109.889C375.197 109.554 373.928 108.644 373.928 106.424Z" fill="#09817E"/>
<path d="M387.469 107.639C386.761 108.948 385.227 109.738 383.575 109.738C381.067 109.738 379.297 107.944 379.297 105.694C379.297 102.958 381.392 101.681 383.575 101.438L387.144 101.073V99.7655C387.144 98.0619 385.994 97.0293 383.989 97.0293C382.719 97.0293 381.362 97.4551 380.448 98.0619L380.064 96.451C381.096 95.7222 382.572 95.3568 384.077 95.3568C386.938 95.3568 389.033 96.9991 389.033 99.9479V106.241C389.033 107.61 389.829 108.339 390.685 108.49L389.475 109.738C388.56 109.526 387.675 108.702 387.469 107.639ZM383.87 102.988C382.129 103.139 381.096 104.204 381.096 105.694C381.096 107.061 382.218 108.096 383.634 108.096C385.227 108.096 387.144 106.697 387.144 104.539V102.684L383.87 102.988Z" fill="#09817E"/>
<path d="M401.718 100.343C401.718 98.398 400.421 97.0293 398.031 97.0293C395.7 97.0293 394.225 98.398 394.225 100.343V109.434H392.367V95.6601H394.047L394.108 97.3331C394.815 96.2683 396.113 95.3568 398.473 95.3568C401.394 95.3568 403.577 97.1504 403.577 100.161V109.434H401.718V100.343Z" fill="#09817E"/>
<path d="M412.722 109.738C408.74 109.738 405.671 106.757 405.671 102.563C405.671 98.337 408.74 95.3568 412.722 95.3568C416.734 95.3568 419.744 98.337 419.744 102.563C419.744 106.757 416.734 109.738 412.722 109.738ZM412.722 97.0595C409.802 97.0595 407.559 99.3402 407.559 102.563C407.559 105.816 409.802 108.034 412.722 108.034C415.554 108.034 417.855 105.816 417.855 102.563C417.855 99.3402 415.554 97.0595 412.722 97.0595Z" fill="#09817E"/>
<path d="M294.555 149.131V137.936C294.555 137.003 294.555 135.552 294.659 133.582H294.451C294.14 135.241 293.933 136.381 293.726 136.899L290.72 149.131H284.915L281.805 137.107C281.701 136.692 281.494 135.552 281.183 133.686C281.287 136.692 281.39 138.662 281.39 139.595V149.131H276V128.814H285.122L287.921 139.906C288.128 140.631 288.232 141.668 288.439 142.912H288.543C288.647 142.082 288.854 141.149 289.061 139.906L291.653 128.918H300.671V149.235H294.555V149.131Z" fill="#09817E"/>
<path d="M317.36 149.13L316.427 145.398H310.311L309.378 149.13H302.744L309.793 128.813H317.36L323.994 149.13H317.36ZM313.939 135.447C313.732 134.721 313.628 133.892 313.525 133.167H313.317C313.317 133.581 313.11 134.307 312.903 135.343L311.452 140.941H315.287L313.939 135.447Z" fill="#09817E"/>
<path d="M326.379 149.13V128.813H332.495V149.13H326.379Z" fill="#09817E"/>
<path d="M345.554 149.441C342.652 149.441 340.268 148.508 338.298 146.642C336.329 144.776 335.396 142.288 335.396 139.282C335.396 136.172 336.329 133.581 338.298 131.508C340.268 129.538 342.756 128.502 345.865 128.502C348.871 128.502 351.256 129.435 353.121 131.404C354.987 133.27 355.92 135.861 355.92 138.971C355.92 142.081 354.987 144.672 353.018 146.642C351.048 148.611 348.457 149.441 345.554 149.441ZM345.762 133.685C344.518 133.685 343.585 134.099 342.859 135.032C342.134 135.965 341.823 137.313 341.823 138.971C341.823 140.63 342.134 141.977 342.859 142.91C343.585 143.843 344.414 144.258 345.554 144.258C346.591 144.258 347.524 143.843 348.249 142.91C348.975 141.977 349.286 140.733 349.286 139.075C349.286 137.416 348.975 136.069 348.353 135.136C347.731 134.099 346.798 133.685 345.762 133.685Z" fill="#09817E"/>
<path d="M369.293 149.13L367.739 144.776C367.117 142.911 366.184 141.978 365.043 141.978H364.836V149.13H358.72V128.813H366.806C372.403 128.813 375.098 130.679 375.098 134.41C375.098 137.313 373.543 139.075 370.434 140.008C372.092 140.526 373.233 141.77 374.165 143.947L376.135 149.13H369.293ZM364.836 132.959V137.624H365.976C366.806 137.624 367.531 137.417 367.946 136.898C368.464 136.38 368.671 135.862 368.671 135.136C368.671 133.685 367.842 132.959 366.08 132.959H364.836Z" fill="#09817E"/>
<path d="M276.311 185.239V179.651C278.277 180.996 280.139 181.72 282.002 181.72C283.451 181.72 284.072 181.203 284.072 180.272C284.072 179.754 283.865 179.34 283.451 179.03C283.037 178.719 282.209 178.305 280.864 177.788C277.552 176.546 276 174.477 276 171.682C276 169.716 276.724 168.164 278.277 167.026C279.725 165.887 281.795 165.267 284.279 165.267C286.245 165.267 288.108 165.577 289.867 166.094V171.269C288.108 170.337 286.452 169.82 284.796 169.82C284.072 169.82 283.554 169.923 283.14 170.234C282.726 170.441 282.52 170.855 282.52 171.269C282.52 171.682 282.726 172.096 283.037 172.303C283.347 172.614 284.072 172.924 285.107 173.338C287.28 174.166 288.729 175.097 289.556 176.132C290.384 177.167 290.902 178.305 290.902 179.754C290.902 181.72 290.177 183.273 288.729 184.411C287.28 185.653 285.003 186.17 282.106 186.17C280.036 186.274 278.173 185.963 276.311 185.239Z" fill="#09817E"/>
<path d="M306.218 185.963L305.287 182.238H299.181L298.25 185.963H291.627L298.664 165.681H306.218L312.841 185.963H306.218ZM302.7 172.304C302.493 171.579 302.389 170.751 302.286 170.027H302.182C302.182 170.441 301.975 171.165 301.768 172.2L300.319 177.788H304.148L302.7 172.304Z" fill="#09817E"/>
<path d="M323.085 170.441V185.963H316.979V170.441H311.288V165.681H328.88V170.441H323.085Z" fill="#09817E"/>
<path d="M331.26 185.963V165.681H337.366V185.963H331.26Z" fill="#09817E"/>
<path d="M340.884 185.239V179.651C342.85 180.996 344.713 181.72 346.575 181.72C348.024 181.72 348.645 181.203 348.645 180.272C348.645 179.754 348.438 179.34 348.024 179.03C347.61 178.719 346.782 178.305 345.437 177.788C342.126 176.546 340.573 174.477 340.573 171.682C340.573 169.716 341.298 168.164 342.85 167.026C344.299 165.887 346.369 165.267 348.852 165.267C350.818 165.267 352.681 165.577 354.44 166.094V171.269C352.681 170.337 351.025 169.82 349.37 169.82C348.645 169.82 348.128 169.923 347.714 170.234C347.3 170.441 347.093 170.855 347.093 171.269C347.093 171.682 347.3 172.096 347.61 172.303C347.921 172.614 348.645 172.924 349.68 173.338C351.853 174.166 353.302 175.097 354.13 176.132C354.958 177.167 355.475 178.305 355.475 179.754C355.475 181.72 354.751 183.273 353.302 184.411C351.853 185.653 349.576 186.17 346.679 186.17C344.609 186.274 342.643 185.963 340.884 185.239Z" fill="#09817E"/>
<path d="M364.064 170.441V174.063H370.066V178.823H364.064V185.86H357.958V165.577H370.687V170.337H364.064V170.441Z" fill="#09817E"/>
<path d="M385.07 185.963L384.139 182.238H378.034L377.102 185.963H370.479L377.516 165.681H385.07L391.693 185.963H385.07ZM381.656 172.304C381.449 171.579 381.345 170.751 381.242 170.027H381.138C381.138 170.441 380.931 171.165 380.724 172.2L379.275 177.788H383.104L381.656 172.304Z" fill="#09817E"/>
<path d="M409.183 185.342C407.838 185.86 406.182 186.17 404.32 186.17V186.791C406.182 186.895 407.114 187.722 407.114 189.275C407.114 190.309 406.7 191.137 405.872 191.655C405.044 192.172 403.802 192.483 402.25 192.483C401.732 192.483 401.215 192.483 400.594 192.379V189.896C400.905 189.999 401.319 189.999 401.732 189.999C402.767 189.999 403.388 189.689 403.388 189.171C403.388 188.654 402.871 188.343 401.939 188.343H401.629C401.525 188.343 401.422 188.343 401.319 188.343V186.17C398.628 185.756 396.662 184.721 395.213 182.962C393.764 181.203 393.04 178.926 393.04 176.339C393.04 173.131 394.075 170.441 396.144 168.475C398.214 166.508 400.905 165.474 404.216 165.474C405.975 165.474 407.631 165.68 409.287 166.094V171.786C408.045 171.062 406.596 170.751 404.837 170.751C403.181 170.751 401.939 171.269 400.905 172.2C399.973 173.131 399.456 174.477 399.456 176.132C399.456 177.788 399.973 179.03 400.905 179.961C401.836 180.893 403.181 181.41 404.733 181.41C406.182 181.41 407.734 180.996 409.183 180.272V185.342Z" fill="#09817E"/>
<path d="M425.016 185.963L424.085 182.238H417.979L417.048 185.963H410.425L417.462 165.681H425.016L431.639 185.963H425.016ZM426.672 158.747C426.672 160.3 426.361 161.541 425.844 162.369C425.223 163.197 424.499 163.611 423.36 163.611C422.429 163.611 421.394 163.197 420.049 162.369C419.738 162.162 419.531 162.162 419.221 162.162C418.497 162.162 418.083 162.68 418.083 163.818H415.599C415.599 162.266 415.91 161.024 416.427 160.196C416.944 159.368 417.772 158.954 418.807 158.954C419.738 158.954 420.67 159.265 421.498 159.782C422.222 160.196 422.739 160.403 423.05 160.403C423.774 160.403 424.085 159.886 424.085 158.747H426.672ZM421.601 172.304C421.394 171.579 421.291 170.751 421.187 170.027H421.084C421.084 170.441 420.877 171.165 420.67 172.2L419.221 177.788H423.05L421.601 172.304Z" fill="#09817E"/>
<path d="M443.126 186.274C440.228 186.274 437.848 185.343 435.882 183.48C433.916 181.617 432.984 179.134 432.984 176.133C432.984 173.028 433.916 170.441 435.882 168.371C437.848 166.405 440.332 165.37 443.436 165.37C446.437 165.37 448.817 166.302 450.68 168.268C452.543 170.131 453.474 172.718 453.474 175.822C453.474 178.927 452.543 181.514 450.577 183.48C448.61 185.446 446.023 186.274 443.126 186.274ZM443.333 170.544C442.091 170.544 441.16 170.958 440.435 171.89C439.711 172.821 439.4 174.166 439.4 175.822C439.4 177.478 439.711 178.823 440.435 179.754C441.16 180.686 441.987 181.1 443.126 181.1C444.161 181.1 445.092 180.686 445.816 179.754C446.541 178.823 446.851 177.581 446.851 175.926C446.851 174.27 446.541 172.925 445.92 171.993C445.299 170.958 444.368 170.544 443.333 170.544Z" fill="#09817E"/>
<path d="M276 222.622V201.789H282.271V222.622H276Z" fill="#00ACA4"/>
<path d="M300.872 222.622L293.538 212.524C293.006 211.78 292.475 211.036 292.156 210.399H292.05C292.156 211.461 292.156 212.524 292.156 213.906V222.622H286.31V201.789H292.262L299.277 211.355C300.021 212.312 300.447 212.95 300.553 213.375H300.659C300.553 213.056 300.553 212.312 300.553 211.143V201.789H306.399V222.622H300.872Z" fill="#00ACA4"/>
<path d="M321.067 206.678V222.622H314.796V206.678H308.95V201.789H327.02V206.678H321.067Z" fill="#00ACA4"/>
<path d="M329.464 222.622V201.789H342.432V206.678H335.735V209.761H342.007V214.65H335.735V217.733H342.963V222.622H329.464Z" fill="#00ACA4"/>
<path d="M356.675 222.622L355.081 218.158C354.443 216.245 353.486 215.288 352.317 215.288H352.104V222.622H345.833V201.789H354.124C359.864 201.789 362.627 203.702 362.627 207.529C362.627 210.505 361.033 212.312 357.844 213.268V213.375C359.545 213.906 360.714 215.182 361.671 217.414L363.69 222.728H356.675V222.622ZM352.104 206.041V210.824H353.274C354.124 210.824 354.868 210.611 355.293 210.08C355.825 209.548 356.037 209.017 356.037 208.273C356.037 206.785 355.187 206.041 353.38 206.041H352.104Z" fill="#00ACA4"/>
<path d="M380.696 222.622L373.362 212.524C372.83 211.78 372.299 211.036 371.98 210.399H371.874C371.98 211.461 371.98 212.524 371.98 213.906V222.622H366.134V201.789H372.086L379.101 211.355C379.845 212.312 380.271 212.95 380.377 213.375H380.483C380.377 213.056 380.377 212.312 380.377 211.143V201.789H386.223V222.622H380.696Z" fill="#00ACA4"/>
<path d="M390.368 222.622V201.789H403.336V206.678H396.639V209.761H402.911V214.65H396.639V217.733H403.867V222.622H390.368Z" fill="#00ACA4"/>
<path d="M417.579 206.678V222.622H411.307V206.678H405.462V201.789H423.531V206.678H417.579Z" fill="#00ACA4"/>
<path d="M237.048 64.2192H229.281C226.6 56.0429 222.661 48.3348 217.605 41.373C216.773 40.3707 215.861 39.2683 214.873 37.9704C213.05 35.5545 211.084 33.2502 208.985 31.0699C208.81 30.8845 208.634 30.6991 208.454 30.5187C208.018 30.0777 207.582 29.6417 207.136 29.2158L206.134 28.2536C205.573 27.7525 205.011 27.2113 204.44 26.7051C204.35 26.625 204.26 26.5398 204.169 26.4646C202.596 25.0715 200.972 23.7736 199.349 22.5258C198.848 16.9032 200.957 11.8368 203.358 8.02829C203.802 7.30834 204.035 6.47791 204.03 5.63189C204.025 4.78586 203.782 3.95835 203.328 3.24389C202.875 2.52943 202.23 1.95683 201.467 1.5915C200.704 1.22618 199.854 1.08287 199.013 1.17794C189.316 2.36059 183.067 6.28438 179.083 10.3886C173.698 7.87831 168.137 5.76137 162.446 4.05438C152.627 1.36857 142.493 0.00517599 132.313 0.000299898C90.1089 -0.0949134 53.9078 22.4907 38.7388 54.6227C30.7209 53.435 25.0782 50.4684 21.2997 46.9154C25.5375 45.2341 29.2438 42.4419 32.0288 38.8323C36.9749 32.1674 34.1636 21.2229 25.6746 18.7122C17.1855 16.2016 4.52717 24.1895 8.81177 41.1876C9.25963 42.9217 9.89478 44.602 10.706 46.1988C7.33608 47.0754 3.91526 47.7431 0.463065 48.1983C0.334736 48.216 0.217141 48.2795 0.132018 48.3771C0.0468956 48.4748 0 48.5999 0 48.7295C0 48.859 0.0468956 48.9842 0.132018 49.0818C0.217141 49.1795 0.334736 49.243 0.463065 49.2607C4.45481 49.7864 8.49827 49.7864 12.49 49.2607C18.8342 58.782 30.2949 64.5299 34.2939 66.2988C30.4707 79.3211 30.1132 93.1157 33.2565 106.319C35.5667 121.437 42.9082 135.664 54.4641 147.411C55.2358 148.318 56.0125 149.215 56.8243 150.092C59.3065 152.764 61.9868 155.245 64.8423 157.513C64.687 167.536 52.3142 189.906 48.5258 198.986C48.2721 199.654 48.1569 200.367 48.187 201.081C48.2172 201.795 48.3921 202.496 48.7011 203.14C48.9615 203.742 49.3719 204.267 49.8931 204.664C50.4143 205.062 51.0288 205.319 51.6778 205.411L52.209 205.436C66.9821 205.471 91.5521 186.393 102.822 174.757C112.936 176.986 123.291 177.927 133.641 177.558C159.995 176.27 177.785 170.773 194.212 158.3C201.881 153.011 208.669 146.548 214.327 139.147C215.585 137.724 216.833 136.266 218.126 134.747C223.173 127.651 227.063 119.799 229.652 111.485H236.988C239.78 111.483 242.459 110.378 244.441 108.411C246.423 106.444 247.548 103.774 247.572 100.982L247.632 74.838C247.635 73.4455 247.364 72.0661 246.834 70.7785C246.303 69.491 245.524 68.3207 244.541 67.3344C243.558 66.3482 242.391 65.5654 241.105 65.0309C239.819 64.4963 238.441 64.2205 237.048 64.2192ZM14.9756 31.571C15.8826 26.219 20.8287 22.7813 24.3766 24.2947C28.2453 25.9434 30.8161 33.8862 22.9234 40.3006C21.4608 41.4764 19.8825 42.5006 18.2128 43.3574C15.3013 39.143 14.4494 34.678 14.9756 31.571Z" fill="#09817E"/>
<path d="M137.137 190.262L141.863 199.867L152.432 201.408L144.784 208.885L146.59 219.443L137.137 214.458L127.684 219.443L129.489 208.885L121.841 201.408L132.41 199.867L137.137 190.262Z" fill="#FAC05E"/>
<path d="M234.518 141.237L238.677 149.69L247.978 151.046L241.248 157.626L242.837 166.917L234.518 162.53L226.2 166.917L227.788 157.626L221.058 151.046L230.359 149.69L234.518 141.237Z" fill="#FAC05E"/>
<path d="M195.962 175.087L201.913 187.182L215.221 189.122L205.591 198.537L207.865 211.831L195.962 205.554L184.059 211.831L186.332 198.537L176.702 189.122L190.01 187.182L195.962 175.087Z" fill="#FAC05E"/>
<path d="M85.471 54.0771V61.6917H79.9799V39.2486H89.0692C90.8109 39.2486 92.3492 39.5671 93.6842 40.2042C95.0296 40.8311 96.0673 41.7303 96.7974 42.9017C97.5379 44.0629 97.9081 45.3834 97.9081 46.8632C97.9081 49.052 97.1103 50.8041 95.5146 52.1195C93.9293 53.4245 91.7495 54.0771 88.9753 54.0771H85.471ZM85.471 49.8998H89.0692C90.133 49.8998 90.9413 49.6378 91.494 49.1137C92.0572 48.5896 92.3388 47.8497 92.3388 46.894C92.3388 45.8459 92.052 45.0083 91.4784 44.3815C90.9048 43.7547 90.1226 43.4361 89.1318 43.4258H85.471V49.8998Z" fill="#FAFAFA"/>
<path d="M110.846 49.7148L109.109 49.5915C107.451 49.5915 106.387 50.1053 105.918 51.1329V61.6917H100.646V45.0135H105.589L105.762 47.1561C106.648 45.5222 107.884 44.7052 109.469 44.7052C110.032 44.7052 110.523 44.7669 110.94 44.8902L110.846 49.7148Z" fill="#FAFAFA"/>
<path d="M120.623 62C118.027 62 115.925 61.2396 114.319 59.7187C112.713 58.1875 111.91 56.1991 111.91 53.7534V53.3218C111.91 51.6159 112.228 50.1105 112.864 48.8054C113.511 47.5003 114.449 46.4933 115.68 45.7842C116.911 45.0649 118.371 44.7052 120.06 44.7052C122.438 44.7052 124.315 45.4348 125.692 46.894C127.069 48.343 127.757 50.3674 127.757 52.9672V54.9865H117.276C117.463 55.9216 117.875 56.6564 118.512 57.1908C119.148 57.7251 119.972 57.9923 120.983 57.9923C122.652 57.9923 123.956 57.4168 124.894 56.2659L127.304 59.0713C126.646 59.9653 125.713 60.6795 124.503 61.2139C123.304 61.738 122.011 62 120.623 62ZM120.029 48.7129C118.485 48.7129 117.568 49.72 117.276 51.7341H122.595V51.3333C122.615 50.501 122.402 49.8587 121.953 49.4066C121.505 48.9441 120.863 48.7129 120.029 48.7129ZM125.942 42.3314V42.5318H121.781L119.294 40.4355L116.806 42.5318H112.739V42.2697L117.792 38H120.811L125.942 42.3314Z" fill="#FAFAFA"/>
<path d="M134.875 45.0135L135.047 46.9711C136.247 45.4605 137.858 44.7052 139.881 44.7052C142.019 44.7052 143.464 45.5427 144.215 47.2177C145.362 45.5427 147.02 44.7052 149.19 44.7052C152.621 44.7052 154.384 46.7502 154.477 50.8401V61.6917H149.19V51.1638C149.19 50.3109 149.044 49.6891 148.752 49.2987C148.46 48.9082 147.928 48.7129 147.156 48.7129C146.113 48.7129 145.336 49.1702 144.825 50.0848L144.841 50.3006V61.6917H139.553V51.1946C139.553 50.3211 139.412 49.6891 139.131 49.2987C138.849 48.9082 138.312 48.7129 137.519 48.7129C136.508 48.7129 135.736 49.1702 135.204 50.0848V61.6917H129.932V45.0135H134.875Z" fill="#FAFAFA"/>
<path d="M163.05 61.6917H157.763V45.0135H163.05V61.6917ZM157.45 40.7129C157.45 39.973 157.721 39.3667 158.263 38.894C158.806 38.4213 159.51 38.185 160.375 38.185C161.241 38.185 161.945 38.4213 162.487 38.894C163.03 39.3667 163.301 39.973 163.301 40.7129C163.301 41.4528 163.03 42.0591 162.487 42.5318C161.945 43.0045 161.241 43.2408 160.375 43.2408C159.51 43.2408 158.806 43.0045 158.263 42.5318C157.721 42.0591 157.45 41.4528 157.45 40.7129Z" fill="#FAFAFA"/>
<path d="M165.647 53.1985C165.647 51.5337 165.976 50.0539 166.633 48.7592C167.29 47.4541 168.234 46.4522 169.465 45.7534C170.695 45.0546 172.14 44.7052 173.798 44.7052C176.332 44.7052 178.33 45.4811 179.79 47.0328C181.25 48.5742 181.98 50.6757 181.98 53.3372V53.5222C181.98 56.122 181.245 58.1875 179.774 59.7187C178.314 61.2396 176.332 62 173.829 62C171.42 62 169.485 61.2909 168.025 59.8728C166.565 58.4444 165.778 56.5125 165.663 54.0771L165.647 53.1985ZM170.919 53.5222C170.919 55.0636 171.165 56.194 171.655 56.9133C172.145 57.6326 172.87 57.9923 173.829 57.9923C175.707 57.9923 176.666 56.569 176.708 53.7225V53.1985C176.708 50.2081 175.738 48.7129 173.798 48.7129C172.035 48.7129 171.081 50.0026 170.935 52.5819L170.919 53.5222Z" fill="#FAFAFA"/>
<path d="M198.543 54.5878H187.979V49.9999H198.543V54.5878Z" fill="#FAFAFA"/>
<path d="M72.5433 54.5878H61.9788V49.9999H72.5433V54.5878Z" fill="#FAFAFA"/>
<path d="M87.3484 121.361H53.5103V113.058L64.896 101.529C68.149 98.1224 70.2752 95.8017 71.2745 94.5669C72.2738 93.3107 72.9648 92.2355 73.3475 91.3413C73.7515 90.4471 73.9535 89.5103 73.9535 88.5309C73.9535 87.3174 73.5601 86.3593 72.7735 85.6567C71.9868 84.9541 70.8812 84.6028 69.4566 84.6028C67.9896 84.6028 66.5012 85.0286 64.9916 85.8802C63.5033 86.7106 61.813 87.9454 59.9207 89.5848L53 81.4731C55.4026 79.3227 57.4225 77.7898 59.0596 76.8743C60.6968 75.9375 62.4721 75.2242 64.3857 74.7345C66.3205 74.2448 68.4892 74 70.8918 74C73.911 74 76.6006 74.5323 78.9606 75.5968C81.342 76.6613 83.1811 78.1836 84.4781 80.1637C85.7963 82.1224 86.4554 84.326 86.4554 86.7745C86.4554 88.6055 86.2215 90.2981 85.7538 91.8523C85.3073 93.4065 84.6056 94.9395 83.6489 96.4511C82.6921 97.9415 81.4164 99.517 79.8217 101.178C78.2484 102.838 74.8784 105.989 69.7118 110.631V110.95H87.3484V121.361Z" fill="#FAFAFA"/>
<path d="M128.424 98.0798C128.424 106.341 127.042 112.398 124.278 116.251C121.514 120.084 117.282 122 111.584 122C106.014 122 101.815 119.999 98.9867 115.996C96.1589 111.972 94.745 106 94.745 98.0798C94.745 89.7764 96.127 83.6873 98.891 79.8124C101.655 75.9375 105.886 74 111.584 74C117.134 74 121.322 76.0226 124.15 80.0679C126.999 84.0918 128.424 90.0958 128.424 98.0798ZM107.279 98.0798C107.279 103.36 107.608 106.99 108.267 108.97C108.927 110.95 110.032 111.94 111.584 111.94C113.158 111.94 114.263 110.918 114.901 108.874C115.56 106.83 115.89 103.232 115.89 98.0798C115.89 92.9062 115.56 89.2868 114.901 87.2216C114.242 85.1351 113.136 84.0918 111.584 84.0918C110.032 84.0918 108.927 85.0925 108.267 87.0938C107.608 89.0951 107.279 92.7572 107.279 98.0798Z" fill="#FAFAFA"/>
<path d="M169.116 121.361H135.278V113.058L146.664 101.529C149.917 98.1224 152.043 95.8017 153.042 94.5669C154.042 93.3107 154.733 92.2355 155.115 91.3413C155.519 90.4471 155.721 89.5103 155.721 88.5309C155.721 87.3174 155.328 86.3593 154.541 85.6567C153.754 84.9541 152.649 84.6028 151.224 84.6028C149.757 84.6028 148.269 85.0286 146.759 85.8802C145.271 86.7106 143.581 87.9454 141.688 89.5848L134.768 81.4731C137.17 79.3227 139.19 77.7898 140.827 76.8743C142.464 75.9375 144.24 75.2242 146.153 74.7345C148.088 74.2448 150.257 74 152.66 74C155.679 74 158.368 74.5323 160.728 75.5968C163.11 76.6613 164.949 78.1836 166.246 80.1637C167.564 82.1224 168.223 84.326 168.223 86.7745C168.223 88.6055 167.989 90.2981 167.522 91.8523C167.075 93.4065 166.373 94.9395 165.417 96.4511C164.46 97.9415 163.184 99.517 161.589 101.178C160.016 102.838 156.646 105.989 151.479 110.631V110.95H169.116V121.361Z" fill="#FAFAFA"/>
<path d="M210 121.361H176.162V113.058L187.548 101.529C190.801 98.1224 192.927 95.8017 193.926 94.5669C194.925 93.3107 195.616 92.2355 195.999 91.3413C196.403 90.4471 196.605 89.5103 196.605 88.5309C196.605 87.3174 196.212 86.3593 195.425 85.6567C194.638 84.9541 193.533 84.6028 192.108 84.6028C190.641 84.6028 189.153 85.0286 187.643 85.8802C186.155 86.7106 184.465 87.9454 182.572 89.5848L175.652 81.4731C178.054 79.3227 180.074 77.7898 181.711 76.8743C183.348 75.9375 185.124 75.2242 187.037 74.7345C188.972 74.2448 191.141 74 193.543 74C196.563 74 199.252 74.5323 201.612 75.5968C203.994 76.6613 205.833 78.1836 207.13 80.1637C208.448 82.1224 209.107 84.326 209.107 86.7745C209.107 88.6055 208.873 90.2981 208.405 91.8523C207.959 93.4065 207.257 94.9395 206.3 96.4511C205.344 97.9415 204.068 99.517 202.473 101.178C200.9 102.838 197.53 105.989 192.363 110.631V110.95H210V121.361Z" fill="#FAFAFA"/>
<path d="M457 263H119C105.745 263 95 273.745 95 287C95 300.255 105.745 311 119 311H457C470.255 311 481 300.255 481 287C481 273.745 470.255 263 457 263Z" fill="#00ACA4"/>
<path d="M211.336 297.707L206.954 282.294H206.822C207.027 284.919 207.13 286.959 207.13 288.413V297.707H202V276.307H209.709L214.179 291.501H214.296L218.678 276.307H226.402V297.707H221.082V288.325C221.082 287.837 221.087 287.295 221.096 286.7C221.116 286.105 221.184 284.646 221.302 282.323H221.17L216.846 297.707H211.336Z" fill="#FAFAFA"/>
<path d="M249.236 276.307V289.188C249.236 291.989 248.439 294.16 246.847 295.702C245.264 297.234 242.978 298 239.988 298C237.066 298 234.819 297.253 233.246 295.76C231.683 294.267 230.901 292.121 230.901 289.32V276.307H236.719V288.866C236.719 290.379 237.003 291.477 237.57 292.16C238.136 292.843 238.972 293.184 240.076 293.184C241.258 293.184 242.113 292.848 242.64 292.174C243.178 291.491 243.446 290.379 243.446 288.837V276.307H249.236Z" fill="#FAFAFA"/>
<path d="M274.136 297.707H266.544L258.718 282.631H258.586C258.772 285.002 258.864 286.812 258.864 288.061V297.707H253.735V276.307H261.297L269.094 291.179H269.182C269.045 289.022 268.977 287.29 268.977 285.983V276.307H274.136V297.707Z" fill="#FAFAFA"/>
<path d="M278.767 297.707V276.307H284.585V297.707H278.767Z" fill="#FAFAFA"/>
<path d="M298.772 280.743C297.394 280.743 296.32 281.308 295.548 282.44C294.776 283.563 294.39 285.114 294.39 287.095C294.39 291.213 295.958 293.272 299.094 293.272C300.042 293.272 300.961 293.14 301.85 292.877C302.739 292.613 303.633 292.296 304.532 291.925V296.814C302.744 297.605 300.721 298 298.464 298C295.23 298 292.748 297.063 291.019 295.19C289.299 293.316 288.44 290.608 288.44 287.066C288.44 284.851 288.855 282.904 289.685 281.226C290.526 279.547 291.727 278.259 293.291 277.361C294.864 276.454 296.71 276 298.831 276C301.146 276 303.359 276.503 305.47 277.508L303.696 282.06C302.905 281.689 302.113 281.377 301.322 281.123C300.531 280.869 299.681 280.743 298.772 280.743Z" fill="#FAFAFA"/>
<path d="M308.723 297.707V276.307H314.542V297.707H308.723Z" fill="#FAFAFA"/>
<path d="M334.737 283.114C334.737 285.505 334.029 287.354 332.612 288.661C331.205 289.959 329.202 290.608 326.603 290.608H324.976V297.707H319.187V276.307H326.603C329.31 276.307 331.342 276.898 332.7 278.079C334.058 279.259 334.737 280.938 334.737 283.114ZM324.976 285.895H326.032C326.901 285.895 327.59 285.651 328.098 285.163C328.616 284.675 328.875 284.002 328.875 283.143C328.875 281.699 328.074 280.977 326.471 280.977H324.976V285.895Z" fill="#FAFAFA"/>
<path d="M351.298 297.707L350.243 293.697H343.282L342.197 297.707H335.836L342.827 276.22H350.551L357.63 297.707H351.298ZM349.041 288.954L348.118 285.441C347.903 284.66 347.639 283.65 347.327 282.411C347.024 281.172 346.823 280.284 346.726 279.747C346.638 280.245 346.462 281.065 346.198 282.206C345.944 283.348 345.372 285.597 344.483 288.954H349.041Z" fill="#FAFAFA"/>
<path d="M359.96 297.707V276.307H365.749V293.038H374V297.707H359.96Z" fill="#FAFAFA"/>
</g>
<defs>
<clipPath id="clip0_2_702">
<rect width="482" height="311" fill="white"/>
</clipPath>
</defs>
</svg>
