<svg width="464" height="311" viewBox="0 0 464 311" fill="none" xmlns="http://www.w3.org/2000/svg">
<g clip-path="url(#clip0_81_2)">
<path d="M447.794 61.0148H110.835C102.827 61.0148 96.3348 67.5067 96.3348 75.5148V235C96.3348 243.008 102.827 249.5 110.835 249.5H447.794C455.802 249.5 462.294 243.008 462.294 235V75.5148C462.294 67.5067 455.802 61.0148 447.794 61.0148Z" fill="#FAFAFA" stroke="#FAC05E" stroke-width="3"/>
<path d="M294.435 149.107V137.871C294.435 136.934 294.435 135.478 294.54 133.501H294.331C294.019 135.165 293.811 136.31 293.603 136.83L290.586 149.107H284.759L281.638 137.038C281.534 136.622 281.326 135.478 281.014 133.605C281.118 136.622 281.222 138.599 281.222 139.535V149.107H275.812V128.715H284.968L287.777 139.847C287.985 140.576 288.089 141.616 288.297 142.865H288.401C288.505 142.032 288.713 141.096 288.921 139.847L291.522 128.819H300.574V149.211H294.435V149.107Z" fill="#09817E"/>
<path d="M304.527 149.107V128.715H317.22V133.501H310.666V136.518H316.804V141.304H310.666V144.321H317.741V149.107H304.527Z" fill="#09817E"/>
<path d="M320.55 149.107V128.715H326.688V144.321H333.763V149.107H320.55Z" fill="#09817E"/>
<path d="M349.578 149.107V141.512H342.503V149.107H336.365V128.715H342.503V136.31H349.578V128.715H355.717V149.107H349.578Z" fill="#09817E"/>
<path d="M368.826 149.419C365.913 149.419 363.52 148.483 361.543 146.61C359.566 144.737 358.63 142.24 358.63 139.223C358.63 136.102 359.566 133.501 361.543 131.42C363.52 129.443 366.017 128.403 369.138 128.403C372.155 128.403 374.548 129.339 376.421 131.316C378.294 133.189 379.23 135.79 379.23 138.911C379.23 142.032 378.294 144.633 376.317 146.61C374.34 148.587 371.739 149.419 368.826 149.419ZM369.034 133.605C367.786 133.605 366.849 134.021 366.121 134.957C365.393 135.894 365.081 137.246 365.081 138.911C365.081 140.576 365.393 141.928 366.121 142.865C366.849 143.801 367.682 144.217 368.826 144.217C369.867 144.217 370.803 143.801 371.531 142.865C372.26 141.928 372.572 140.68 372.572 139.015C372.572 137.35 372.26 135.998 371.635 135.061C371.011 134.021 370.179 133.605 369.034 133.605Z" fill="#09817E"/>
<path d="M392.652 149.107L391.092 144.737C390.467 142.865 389.531 141.928 388.387 141.928H388.178V149.107H382.04V128.715H390.155C395.774 128.715 398.479 130.588 398.479 134.333C398.479 137.246 396.918 139.015 393.797 139.951C395.461 140.472 396.606 141.72 397.542 143.905L399.519 149.107H392.652ZM388.178 132.877V137.558H389.323C390.155 137.558 390.884 137.35 391.3 136.83C391.82 136.31 392.028 135.79 392.028 135.061C392.028 133.605 391.196 132.877 389.427 132.877H388.178Z" fill="#09817E"/>
<path d="M281.976 178.659V185.241H275.812V164.763H284.17C287.096 164.763 289.185 165.285 290.544 166.435C291.902 167.584 292.529 169.256 292.529 171.554C292.529 173.644 291.693 175.42 290.23 176.674C288.663 178.032 286.573 178.659 283.857 178.659H281.976ZM281.976 169.256V174.271H283.334C285.111 174.271 285.946 173.435 285.946 171.763C285.946 170.091 285.006 169.256 283.125 169.256H281.976Z" fill="#09817E"/>
<path d="M305.589 185.241L304.022 180.853C303.395 178.972 302.455 178.032 301.306 178.032H301.097V185.241H294.932V164.763H303.082C308.724 164.763 311.44 166.644 311.44 170.405C311.44 173.33 309.873 175.106 306.739 176.047V176.151C308.41 176.674 309.56 177.927 310.5 180.122L312.485 185.346H305.589V185.241ZM301.097 169.047V173.748H302.246C303.082 173.748 303.813 173.539 304.231 173.017C304.753 172.494 304.962 171.972 304.962 171.241C304.962 169.778 304.127 169.047 302.35 169.047H301.097Z" fill="#09817E"/>
<path d="M323.768 185.659C320.843 185.659 318.44 184.719 316.455 182.838C314.47 180.957 313.529 178.45 313.529 175.42C313.529 172.286 314.47 169.673 316.455 167.584C318.44 165.599 320.948 164.554 324.082 164.554C327.112 164.554 329.515 165.494 331.396 167.479C333.276 169.36 334.217 171.972 334.217 175.107C334.217 178.241 333.276 180.853 331.291 182.838C329.306 184.823 326.694 185.659 323.768 185.659ZM323.977 169.673C322.724 169.673 321.783 170.091 321.052 171.032C320.321 171.972 320.007 173.33 320.007 175.002C320.007 176.674 320.321 178.032 321.052 178.972C321.783 179.913 322.619 180.331 323.768 180.331C324.813 180.331 325.754 179.913 326.485 178.972C327.216 178.032 327.53 176.778 327.53 175.107C327.53 173.435 327.216 172.077 326.589 171.136C325.963 170.196 325.022 169.673 323.977 169.673Z" fill="#09817E"/>
<path d="M348.635 185.241H341.739L335.157 164.763H341.844L344.978 177.405C345.187 178.45 345.396 179.181 345.396 179.704H345.501C345.605 179.077 345.71 178.241 345.919 177.301L348.949 164.763H355.426L348.635 185.241Z" fill="#09817E"/>
<path d="M357.516 185.241V164.763H370.263V169.569H363.68V172.599H369.845V177.405H363.68V180.435H370.785V185.241H357.516Z" fill="#09817E"/>
<path d="M373.711 185.241V164.763H382.174C389.383 164.763 393.04 168.106 393.04 174.793C393.04 177.927 392.099 180.54 390.114 182.42C388.129 184.301 385.621 185.241 382.382 185.241H373.711ZM379.875 169.673V180.539H381.651C383.114 180.539 384.263 180.017 385.203 178.972C386.039 177.927 386.562 176.569 386.562 174.898C386.562 173.435 386.144 172.181 385.203 171.136C384.263 170.091 383.114 169.673 381.547 169.673H379.875Z" fill="#09817E"/>
<path d="M404.95 185.659C402.025 185.659 399.622 184.719 397.637 182.838C395.652 180.957 394.711 178.45 394.711 175.42C394.711 172.286 395.652 169.673 397.637 167.584C399.622 165.599 402.129 164.554 405.264 164.554C408.294 164.554 410.697 165.494 412.577 167.479C414.458 169.36 415.398 171.972 415.398 175.107C415.398 178.241 414.458 180.853 412.473 182.838C410.488 184.823 407.98 185.659 404.95 185.659ZM405.159 169.673C403.906 169.673 402.965 170.091 402.234 171.032C401.503 171.972 401.189 173.33 401.189 175.002C401.189 176.674 401.503 178.032 402.234 178.972C402.965 179.913 403.801 180.331 404.95 180.331C405.995 180.331 406.936 179.913 407.667 178.972C408.398 178.032 408.712 176.778 408.712 175.107C408.712 173.435 408.398 172.077 407.771 171.136C407.249 170.196 406.309 169.673 405.159 169.673Z" fill="#09817E"/>
<path d="M428.876 185.241L427.309 180.853C426.682 178.972 425.742 178.032 424.593 178.032H424.384V185.241H418.219V164.763H426.369C432.011 164.763 434.727 166.644 434.727 170.405C434.727 173.33 433.16 175.106 430.026 176.047V176.151C431.697 176.674 432.847 177.927 433.787 180.122L435.772 185.346H428.876V185.241ZM424.488 169.047V173.748H425.638C426.473 173.748 427.205 173.539 427.623 173.017C428.145 172.494 428.354 171.972 428.354 171.241C428.354 169.778 427.518 169.047 425.742 169.047H424.488Z" fill="#09817E"/>
<path d="M293.536 109.03L292.932 102.059C292.842 100.97 292.751 99.7878 292.751 98.5431H292.691C292.268 99.7567 291.694 101.033 291.151 102.122L287.708 109.061H285.927L282.455 102.122C281.911 101.033 281.367 99.7878 280.915 98.5742H280.854C280.854 99.8189 280.764 100.97 280.673 102.059L280.099 109.03H275.812L277.382 90.11H281.005L285.021 98.0763C285.565 99.1655 286.38 100.877 286.863 102.122H286.923C287.376 100.877 288.041 99.3833 288.675 98.0763L292.66 90.11H296.314L297.944 109.03H293.536Z" fill="#00ACA4"/>
<path d="M311.684 101.841L309.993 103.553H303.471C303.773 104.735 305.011 106.105 307.305 106.105C308.815 106.105 309.963 105.762 311.08 105.078L310.717 108.656C309.812 109.092 308.543 109.434 306.822 109.434C302.565 109.434 299.183 106.603 299.183 102.215C299.183 97.8583 302.323 95.151 305.977 95.151C309.6 95.151 311.835 97.7338 311.835 100.503C311.804 100.97 311.774 101.468 311.684 101.841ZM305.977 98.4807C304.709 98.4807 303.622 99.4142 303.32 100.783H307.939C307.97 100.69 307.97 100.597 307.97 100.472C307.97 99.4142 307.185 98.4807 305.977 98.4807Z" fill="#00ACA4"/>
<path d="M317.571 109.621C315.82 109.497 313.646 107.878 313.646 104.767V87.9006H317.843V104.424C317.843 105.7 318.598 106.385 319.443 106.603L317.571 109.621Z" fill="#00ACA4"/>
<path d="M329.167 109.03V101.001C329.167 100.037 328.502 99.1342 327.174 99.1342C325.876 99.1342 325.03 100.006 325.03 101.064V109.03H320.863V87.9006H325.03C325.03 87.9006 325.03 96.5203 325.03 96.4892C325.876 95.6801 326.963 95.2445 328.533 95.2445C331.371 95.2445 333.364 97.1116 333.364 100.068V109.03H329.167Z" fill="#00ACA4"/>
<path d="M358.433 99.1346C356.199 99.1346 354.116 100.504 354.116 103.74V109.061H349.918V95.6182H353.814L353.934 97.7343C354.75 96.0539 356.35 95.4004 358.494 95.4004L358.796 99.1657C358.735 99.1346 358.645 99.1346 358.433 99.1346Z" fill="#00ACA4"/>
<path d="M341.665 109.59C337.725 109.59 334.562 106.656 334.562 102.477C334.562 98.2694 337.725 95.3354 341.665 95.3354C345.576 95.3354 348.739 98.2694 348.739 102.477C348.739 106.656 345.576 109.59 341.665 109.59ZM341.665 99.0104C340.025 99.0104 338.646 100.462 338.646 102.477C338.646 104.463 340.025 105.885 341.665 105.885C343.276 105.885 344.685 104.463 344.685 102.477C344.685 100.462 343.276 99.0104 341.665 99.0104Z" fill="#00ACA4"/>
<path d="M366.1 100.557H362.707V109.434H360.731V90.0371H365.982C368.843 90.0371 371.499 91.982 371.499 95.2962C371.499 98.6098 368.843 100.557 366.1 100.557ZM365.657 91.8002H362.707V98.7922H365.776C367.752 98.7922 369.492 97.5154 369.492 95.2962C369.492 93.1073 367.752 91.8002 365.657 91.8002Z" fill="#09817E"/>
<path d="M373.741 106.424V87.7869H375.6V106.21C375.6 107.519 376.395 108.369 377.31 108.582L376.042 109.889C375.009 109.554 373.741 108.644 373.741 106.424Z" fill="#09817E"/>
<path d="M387.281 107.639C386.574 108.948 385.04 109.738 383.388 109.738C380.88 109.738 379.11 107.944 379.11 105.694C379.11 102.958 381.205 101.681 383.388 101.438L386.957 101.073V99.7655C386.957 98.0619 385.806 97.0293 383.801 97.0293C382.531 97.0293 381.175 97.4551 380.26 98.0619L379.876 96.451C380.909 95.7222 382.385 95.3568 383.889 95.3568C386.751 95.3568 388.845 96.9991 388.845 99.9479V106.241C388.845 107.61 389.641 108.339 390.497 108.49L389.287 109.738C388.373 109.526 387.488 108.702 387.281 107.639ZM383.682 102.988C381.942 103.139 380.909 104.204 380.909 105.694C380.909 107.061 382.03 108.096 383.446 108.096C385.04 108.096 386.957 106.697 386.957 104.539V102.684L383.682 102.988Z" fill="#09817E"/>
<path d="M401.531 100.343C401.531 98.398 400.233 97.0293 397.843 97.0293C395.513 97.0293 394.037 98.398 394.037 100.343V109.434H392.179V95.6601H393.86L393.92 97.3331C394.628 96.2683 395.925 95.3568 398.286 95.3568C401.206 95.3568 403.389 97.1504 403.389 100.161V109.434H401.531V100.343Z" fill="#09817E"/>
<path d="M412.535 109.738C408.552 109.738 405.483 106.757 405.483 102.563C405.483 98.337 408.552 95.3568 412.535 95.3568C416.546 95.3568 419.556 98.337 419.556 102.563C419.556 106.757 416.546 109.738 412.535 109.738ZM412.535 97.0595C409.614 97.0595 407.372 99.3402 407.372 102.563C407.372 105.816 409.614 108.034 412.535 108.034C415.367 108.034 417.667 105.816 417.667 102.563C417.667 99.3402 415.367 97.0595 412.535 97.0595Z" fill="#09817E"/>
<path d="M275.812 222.622V201.789H282.083V222.622H275.812Z" fill="#00ACA4"/>
<path d="M300.683 222.622L293.349 212.524C292.818 211.78 292.287 211.036 291.968 210.399H291.861C291.968 211.461 291.968 212.524 291.968 213.906V222.622H286.122V201.789H292.074L299.089 211.355C299.833 212.312 300.258 212.95 300.365 213.375H300.471C300.365 213.056 300.365 212.312 300.365 211.143V201.789H306.211V222.622H300.683Z" fill="#00ACA4"/>
<path d="M320.879 206.678V222.622H314.608V206.678H308.762V201.789H326.831V206.678H320.879Z" fill="#00ACA4"/>
<path d="M329.276 222.622V201.789H342.243V206.678H335.547V209.761H341.818V214.65H335.547V217.733H342.775V222.622H329.276Z" fill="#00ACA4"/>
<path d="M356.486 222.622L354.892 218.158C354.254 216.245 353.298 215.288 352.129 215.288H351.916V222.622H345.645V201.789H353.936C359.675 201.789 362.439 203.702 362.439 207.529C362.439 210.505 360.844 212.312 357.656 213.268V213.375C359.356 213.906 360.526 215.182 361.482 217.414L363.502 222.728H356.486V222.622ZM351.916 206.041V210.824H353.085C353.936 210.824 354.68 210.611 355.105 210.08C355.636 209.548 355.849 209.017 355.849 208.273C355.849 206.785 354.998 206.041 353.191 206.041H351.916Z" fill="#00ACA4"/>
<path d="M380.507 222.622L373.173 212.524C372.642 211.78 372.11 211.036 371.792 210.399H371.685C371.792 211.461 371.792 212.524 371.792 213.906V222.622H365.946V201.789H371.898L378.913 211.355C379.657 212.312 380.082 212.95 380.188 213.375H380.295C380.188 213.056 380.188 212.312 380.188 211.143V201.789H386.034V222.622H380.507Z" fill="#00ACA4"/>
<path d="M390.18 222.622V201.789H403.147V206.678H396.451V209.761H402.722V214.65H396.451V217.733H403.679V222.622H390.18Z" fill="#00ACA4"/>
<path d="M417.39 206.678V222.622H411.119V206.678H405.273V201.789H423.343V206.678H417.39Z" fill="#00ACA4"/>
<path d="M237.048 64.2192H229.281C226.6 56.0429 222.661 48.3348 217.605 41.373C216.773 40.3707 215.861 39.2683 214.873 37.9704C213.05 35.5545 211.084 33.2502 208.985 31.0699C208.81 30.8845 208.634 30.6991 208.454 30.5187C208.018 30.0777 207.582 29.6417 207.136 29.2158L206.134 28.2536C205.573 27.7525 205.011 27.2113 204.44 26.7051C204.35 26.625 204.26 26.5398 204.169 26.4646C202.596 25.0715 200.972 23.7736 199.349 22.5258C198.848 16.9032 200.957 11.8368 203.358 8.02829C203.802 7.30834 204.035 6.47791 204.03 5.63189C204.025 4.78586 203.782 3.95835 203.328 3.24389C202.875 2.52943 202.23 1.95683 201.467 1.5915C200.704 1.22618 199.854 1.08287 199.013 1.17794C189.316 2.36059 183.067 6.28438 179.083 10.3886C173.698 7.87831 168.137 5.76137 162.446 4.05438C152.627 1.36857 142.493 0.00517599 132.313 0.000299898C90.1089 -0.0949134 53.9078 22.4907 38.7388 54.6227C30.7209 53.435 25.0782 50.4684 21.2997 46.9154C25.5375 45.2341 29.2438 42.4419 32.0288 38.8323C36.9749 32.1674 34.1636 21.2229 25.6746 18.7122C17.1855 16.2016 4.52717 24.1895 8.81177 41.1876C9.25963 42.9217 9.89478 44.602 10.706 46.1988C7.33608 47.0754 3.91526 47.7431 0.463065 48.1983C0.334736 48.216 0.217141 48.2795 0.132018 48.3771C0.0468956 48.4748 0 48.5999 0 48.7295C0 48.859 0.0468956 48.9842 0.132018 49.0818C0.217141 49.1795 0.334736 49.243 0.463065 49.2607C4.45481 49.7864 8.49827 49.7864 12.49 49.2607C18.8342 58.782 30.2949 64.5299 34.2939 66.2988C30.4707 79.3211 30.1132 93.1157 33.2565 106.319C35.5667 121.437 42.9082 135.664 54.4641 147.411C55.2358 148.318 56.0125 149.215 56.8243 150.092C59.3065 152.764 61.9868 155.245 64.8423 157.513C64.687 167.536 52.3142 189.906 48.5258 198.986C48.2721 199.654 48.1569 200.367 48.187 201.081C48.2172 201.795 48.3921 202.496 48.7011 203.14C48.9615 203.742 49.3719 204.267 49.8931 204.664C50.4143 205.062 51.0288 205.319 51.6778 205.411L52.209 205.436C66.9821 205.471 91.5521 186.393 102.822 174.757C112.936 176.986 123.291 177.927 133.641 177.558C159.995 176.27 177.785 170.773 194.212 158.3C201.881 153.011 208.669 146.548 214.327 139.147C215.585 137.724 216.833 136.266 218.126 134.747C223.173 127.651 227.063 119.799 229.652 111.485H236.988C239.78 111.483 242.459 110.378 244.441 108.411C246.423 106.444 247.548 103.774 247.572 100.982L247.632 74.838C247.635 73.4455 247.364 72.0661 246.834 70.7785C246.303 69.491 245.524 68.3207 244.541 67.3344C243.558 66.3482 242.391 65.5654 241.105 65.0309C239.819 64.4963 238.441 64.2205 237.048 64.2192ZM14.9756 31.571C15.8826 26.219 20.8287 22.7813 24.3766 24.2947C28.2453 25.9434 30.8161 33.8862 22.9234 40.3006C21.4608 41.4764 19.8825 42.5006 18.2128 43.3574C15.3013 39.143 14.4494 34.678 14.9756 31.571Z" fill="#09817E"/>
<path d="M137.137 190.262L141.863 199.867L152.432 201.408L144.784 208.885L146.59 219.443L137.137 214.458L127.684 219.443L129.489 208.885L121.841 201.408L132.41 199.867L137.137 190.262Z" fill="#FAC05E"/>
<path d="M234.518 141.237L238.677 149.69L247.978 151.046L241.248 157.626L242.837 166.917L234.518 162.53L226.2 166.917L227.788 157.626L221.058 151.046L230.359 149.69L234.518 141.237Z" fill="#FAC05E"/>
<path d="M195.962 175.087L201.913 187.182L215.221 189.122L205.591 198.537L207.865 211.831L195.962 205.554L184.059 211.831L186.332 198.537L176.702 189.122L190.01 187.182L195.962 175.087Z" fill="#FAC05E"/>
<path d="M85.471 54.0771V61.6917H79.9799V39.2486H89.0692C90.8109 39.2486 92.3492 39.5671 93.6842 40.2042C95.0296 40.8311 96.0673 41.7303 96.7974 42.9017C97.5379 44.0629 97.9081 45.3834 97.9081 46.8632C97.9081 49.052 97.1103 50.8041 95.5145 52.1195C93.9293 53.4245 91.7495 54.0771 88.9753 54.0771H85.471ZM85.471 49.8998H89.0692C90.133 49.8998 90.9412 49.6378 91.494 49.1137C92.0572 48.5896 92.3388 47.8497 92.3388 46.894C92.3388 45.8459 92.052 45.0083 91.4784 44.3815C90.9047 43.7547 90.1225 43.4361 89.1317 43.4258H85.471V49.8998Z" fill="#FAFAFA"/>
<path d="M110.846 49.7148L109.109 49.5915C107.451 49.5915 106.387 50.1053 105.918 51.1329V61.6917H100.646V45.0135H105.589L105.761 47.1561C106.648 45.5222 107.884 44.7052 109.469 44.7052C110.032 44.7052 110.523 44.7669 110.94 44.8902L110.846 49.7148Z" fill="#FAFAFA"/>
<path d="M120.623 62C118.027 62 115.925 61.2396 114.319 59.7187C112.713 58.1875 111.91 56.1991 111.91 53.7534V53.3218C111.91 51.6159 112.228 50.1105 112.864 48.8054C113.511 47.5003 114.449 46.4933 115.68 45.7842C116.911 45.0649 118.371 44.7052 120.06 44.7052C122.438 44.7052 124.315 45.4348 125.692 46.894C127.069 48.343 127.757 50.3674 127.757 52.9672V54.9865H117.276C117.463 55.9216 117.875 56.6564 118.511 57.1908C119.148 57.7251 119.972 57.9923 120.983 57.9923C122.652 57.9923 123.956 57.4168 124.894 56.2659L127.304 59.0713C126.646 59.9653 125.713 60.6795 124.503 61.2139C123.304 61.738 122.011 62 120.623 62ZM120.029 48.7129C118.485 48.7129 117.568 49.72 117.276 51.7341H122.595V51.3333C122.615 50.501 122.402 49.8587 121.953 49.4066C121.505 48.9441 120.863 48.7129 120.029 48.7129ZM125.942 42.3314V42.5318H121.781L119.294 40.4355L116.806 42.5318H112.739V42.2697L117.792 38H120.811L125.942 42.3314Z" fill="#FAFAFA"/>
<path d="M134.875 45.0135L135.047 46.9711C136.247 45.4605 137.858 44.7052 139.881 44.7052C142.019 44.7052 143.464 45.5427 144.215 47.2177C145.362 45.5427 147.02 44.7052 149.19 44.7052C152.621 44.7052 154.384 46.7502 154.477 50.8401V61.6917H149.19V51.1638C149.19 50.3109 149.044 49.6891 148.752 49.2987C148.46 48.9082 147.928 48.7129 147.156 48.7129C146.113 48.7129 145.336 49.1702 144.825 50.0848L144.841 50.3006V61.6917H139.553V51.1946C139.553 50.3211 139.412 49.6891 139.13 49.2987C138.849 48.9082 138.312 48.7129 137.519 48.7129C136.507 48.7129 135.736 49.1702 135.204 50.0848V61.6917H129.932V45.0135H134.875Z" fill="#FAFAFA"/>
<path d="M163.05 61.6917H157.763V45.0135H163.05V61.6917ZM157.45 40.7129C157.45 39.973 157.721 39.3667 158.263 38.894C158.806 38.4213 159.51 38.185 160.375 38.185C161.241 38.185 161.945 38.4213 162.487 38.894C163.03 39.3667 163.301 39.973 163.301 40.7129C163.301 41.4528 163.03 42.0591 162.487 42.5318C161.945 43.0045 161.241 43.2408 160.375 43.2408C159.51 43.2408 158.806 43.0045 158.263 42.5318C157.721 42.0591 157.45 41.4528 157.45 40.7129Z" fill="#FAFAFA"/>
<path d="M165.647 53.1985C165.647 51.5337 165.976 50.0539 166.633 48.7592C167.29 47.4541 168.234 46.4522 169.465 45.7534C170.695 45.0546 172.14 44.7052 173.798 44.7052C176.332 44.7052 178.33 45.4811 179.79 47.0328C181.25 48.5742 181.98 50.6757 181.98 53.3372V53.5222C181.98 56.122 181.245 58.1875 179.774 59.7187C178.314 61.2396 176.332 62 173.829 62C171.42 62 169.485 61.2909 168.025 59.8728C166.565 58.4444 165.778 56.5125 165.663 54.0771L165.647 53.1985ZM170.919 53.5222C170.919 55.0636 171.165 56.194 171.655 56.9133C172.145 57.6326 172.87 57.9923 173.829 57.9923C175.707 57.9923 176.666 56.569 176.708 53.7225V53.1985C176.708 50.2081 175.738 48.7129 173.798 48.7129C172.035 48.7129 171.081 50.0026 170.935 52.5819L170.919 53.5222Z" fill="#FAFAFA"/>
<path d="M198.543 54.5878H187.979V49.9999H198.543V54.5878Z" fill="#FAFAFA"/>
<path d="M72.5433 54.5878H61.9788V49.9999H72.5433V54.5878Z" fill="#FAFAFA"/>
<path d="M87.3484 121.361H53.5103V113.058L64.896 101.529C68.149 98.1224 70.2752 95.8017 71.2745 94.5669C72.2738 93.3107 72.9648 92.2355 73.3475 91.3413C73.7515 90.4471 73.9535 89.5103 73.9535 88.5309C73.9535 87.3174 73.5601 86.3593 72.7735 85.6567C71.9868 84.9541 70.8812 84.6028 69.4566 84.6028C67.9896 84.6028 66.5012 85.0286 64.9916 85.8802C63.5033 86.7106 61.813 87.9454 59.9207 89.5848L53 81.4731C55.4026 79.3227 57.4225 77.7898 59.0596 76.8743C60.6968 75.9375 62.4721 75.2242 64.3857 74.7345C66.3205 74.2448 68.4892 74 70.8918 74C73.911 74 76.6006 74.5323 78.9606 75.5968C81.342 76.6613 83.1811 78.1836 84.4781 80.1637C85.7963 82.1224 86.4554 84.326 86.4554 86.7745C86.4554 88.6055 86.2215 90.2981 85.7538 91.8523C85.3073 93.4065 84.6056 94.9395 83.6489 96.4511C82.6921 97.9415 81.4164 99.517 79.8217 101.178C78.2484 102.838 74.8784 105.989 69.7118 110.631V110.95H87.3484V121.361Z" fill="#FAFAFA"/>
<path d="M128.424 98.0798C128.424 106.341 127.042 112.398 124.278 116.251C121.514 120.084 117.282 122 111.584 122C106.014 122 101.815 119.999 98.9867 115.996C96.1589 111.972 94.745 106 94.745 98.0798C94.745 89.7764 96.127 83.6873 98.891 79.8124C101.655 75.9375 105.886 74 111.584 74C117.134 74 121.322 76.0226 124.15 80.0679C126.999 84.0918 128.424 90.0958 128.424 98.0798ZM107.279 98.0798C107.279 103.36 107.608 106.99 108.267 108.97C108.927 110.95 110.032 111.94 111.584 111.94C113.158 111.94 114.263 110.918 114.901 108.874C115.56 106.83 115.89 103.232 115.89 98.0798C115.89 92.9062 115.56 89.2868 114.901 87.2216C114.242 85.1351 113.136 84.0918 111.584 84.0918C110.032 84.0918 108.927 85.0925 108.267 87.0938C107.608 89.0951 107.279 92.7572 107.279 98.0798Z" fill="#FAFAFA"/>
<path d="M169.116 121.361H135.278V113.058L146.664 101.529C149.917 98.1224 152.043 95.8017 153.042 94.5669C154.042 93.3107 154.733 92.2355 155.115 91.3413C155.519 90.4471 155.721 89.5103 155.721 88.5309C155.721 87.3174 155.328 86.3593 154.541 85.6567C153.754 84.9541 152.649 84.6028 151.224 84.6028C149.757 84.6028 148.269 85.0286 146.759 85.8802C145.271 86.7106 143.581 87.9454 141.688 89.5848L134.768 81.4731C137.17 79.3227 139.19 77.7898 140.827 76.8743C142.464 75.9375 144.24 75.2242 146.153 74.7345C148.088 74.2448 150.257 74 152.66 74C155.679 74 158.368 74.5323 160.728 75.5968C163.11 76.6613 164.949 78.1836 166.246 80.1637C167.564 82.1224 168.223 84.326 168.223 86.7745C168.223 88.6055 167.989 90.2981 167.522 91.8523C167.075 93.4065 166.373 94.9395 165.417 96.4511C164.46 97.9415 163.184 99.517 161.589 101.178C160.016 102.838 156.646 105.989 151.479 110.631V110.95H169.116V121.361Z" fill="#FAFAFA"/>
<path d="M210 121.361H176.162V113.058L187.548 101.529C190.801 98.1224 192.927 95.8017 193.926 94.5669C194.925 93.3107 195.616 92.2355 195.999 91.3413C196.403 90.4471 196.605 89.5103 196.605 88.5309C196.605 87.3174 196.212 86.3593 195.425 85.6567C194.638 84.9541 193.533 84.6028 192.108 84.6028C190.641 84.6028 189.153 85.0286 187.643 85.8802C186.155 86.7106 184.465 87.9454 182.572 89.5848L175.652 81.4731C178.054 79.3227 180.074 77.7898 181.711 76.8743C183.348 75.9375 185.124 75.2242 187.037 74.7345C188.972 74.2448 191.141 74 193.543 74C196.563 74 199.252 74.5323 201.612 75.5968C203.994 76.6613 205.833 78.1836 207.13 80.1637C208.448 82.1224 209.107 84.326 209.107 86.7745C209.107 88.6055 208.873 90.2981 208.405 91.8523C207.959 93.4065 207.257 94.9395 206.3 96.4511C205.344 97.9415 204.068 99.517 202.473 101.178C200.9 102.838 197.53 105.989 192.363 110.631V110.95H210V121.361Z" fill="#FAFAFA"/>
<path d="M440 263H119C105.745 263 95 273.745 95 287C95 300.255 105.745 311 119 311H440C453.255 311 464 300.255 464 287C464 273.745 453.255 263 440 263Z" fill="#00ACA4"/>
<path d="M203.336 297.707L198.954 282.294H198.822C199.027 284.919 199.13 286.959 199.13 288.413V297.707H194V276.307H201.709L206.179 291.501H206.296L210.678 276.307H218.402V297.707H213.082V288.325C213.082 287.837 213.087 287.295 213.096 286.7C213.116 286.105 213.184 284.646 213.302 282.323H213.17L208.846 297.707H203.336Z" fill="#FAFAFA"/>
<path d="M241.236 276.307V289.188C241.236 291.989 240.439 294.16 238.847 295.702C237.264 297.234 234.978 298 231.988 298C229.066 298 226.819 297.253 225.246 295.76C223.683 294.267 222.901 292.121 222.901 289.32V276.307H228.719V288.866C228.719 290.379 229.003 291.477 229.57 292.16C230.136 292.843 230.972 293.184 232.076 293.184C233.258 293.184 234.113 292.848 234.64 292.174C235.178 291.491 235.446 290.379 235.446 288.837V276.307H241.236Z" fill="#FAFAFA"/>
<path d="M266.136 297.707H258.544L250.718 282.631H250.586C250.772 285.002 250.864 286.812 250.864 288.061V297.707H245.735V276.307H253.297L261.094 291.179H261.182C261.045 289.022 260.977 287.29 260.977 285.983V276.307H266.136V297.707Z" fill="#FAFAFA"/>
<path d="M270.767 297.707V276.307H276.585V297.707H270.767Z" fill="#FAFAFA"/>
<path d="M290.772 280.743C289.394 280.743 288.32 281.308 287.548 282.44C286.776 283.563 286.39 285.114 286.39 287.095C286.39 291.213 287.958 293.272 291.094 293.272C292.042 293.272 292.961 293.14 293.85 292.877C294.739 292.613 295.633 292.296 296.532 291.925V296.814C294.744 297.605 292.721 298 290.464 298C287.23 298 284.748 297.063 283.019 295.19C281.299 293.316 280.44 290.608 280.44 287.066C280.44 284.851 280.855 282.904 281.685 281.226C282.526 279.547 283.727 278.259 285.291 277.361C286.864 276.454 288.71 276 290.831 276C293.146 276 295.359 276.503 297.47 277.508L295.696 282.06C294.905 281.689 294.113 281.377 293.322 281.123C292.531 280.869 291.681 280.743 290.772 280.743Z" fill="#FAFAFA"/>
<path d="M300.723 297.707V276.307H306.542V297.707H300.723Z" fill="#FAFAFA"/>
<path d="M326.737 283.114C326.737 285.505 326.029 287.354 324.612 288.661C323.205 289.959 321.202 290.608 318.603 290.608H316.976V297.707H311.187V276.307H318.603C321.31 276.307 323.342 276.898 324.7 278.079C326.058 279.259 326.737 280.938 326.737 283.114ZM316.976 285.895H318.032C318.901 285.895 319.59 285.651 320.098 285.163C320.616 284.675 320.875 284.002 320.875 283.143C320.875 281.699 320.074 280.977 318.471 280.977H316.976V285.895Z" fill="#FAFAFA"/>
<path d="M343.298 297.707L342.243 293.697H335.282L334.197 297.707H327.836L334.827 276.22H342.551L349.63 297.707H343.298ZM341.041 288.954L340.118 285.441C339.903 284.66 339.639 283.65 339.327 282.411C339.024 281.172 338.823 280.284 338.726 279.747C338.638 280.245 338.462 281.065 338.198 282.206C337.944 283.348 337.372 285.597 336.483 288.954H341.041Z" fill="#FAFAFA"/>
<path d="M351.96 297.707V276.307H357.749V293.038H366V297.707H351.96Z" fill="#FAFAFA"/>
</g>
<defs>
<clipPath id="clip0_81_2">
<rect width="464" height="311" fill="white"/>
</clipPath>
</defs>
</svg>
